<?xml version="1.0" encoding="utf-8"?>
<!-- Generator: Adobe Illustrator 26.0.2, SVG Export Plug-In . SVG Version: 6.00 Build 0)  -->
<svg version="1.1" id="Layer_1" xmlns="http://www.w3.org/2000/svg" xmlns:xlink="http://www.w3.org/1999/xlink" x="0px" y="0px"
	 viewBox="0 0 714 714" style="enable-background:new 0 0 714 714;" xml:space="preserve">
<style type="text/css">
	.st0{fill:#DBB29C;}
	.st1{fill:#DBB29D;}
	.st2{fill:#DBB19C;}
	.st3{fill:#DCB49F;}
	.st4{fill:#AD5F36;}
	.st5{fill:#3F3F2B;}
	.st6{fill:#AC5D33;}
	.st7{fill:#AB5D33;}
	.st8{fill:#AC5D34;}
	.st9{fill:#AC5E34;}
	.st10{fill:#AD5F35;}
	.st11{fill:#AE6037;}
	.st12{fill:#B0653D;}
	.st13{fill:#AF633B;}
	.st14{fill:#AC5E35;}
	.st15{fill:#7A3925;}
	.st16{fill:#B35F45;}
	.st17{fill:#E2A134;}
	.st18{fill:#445832;}
	.st19{fill:#E98FA9;}
	.st20{fill:#6D914B;}
	.st21{fill:#4C6EB9;}
	.st22{fill:#4E6EB9;}
	.st23{fill:#4D6EB8;}
	.st24{fill:#4F70BA;}
	.st25{fill:#EFDD9E;}
	.st26{fill:#FF6C2A;}
	.st27{fill:#9FD95E;}
	.st28{fill:#CE8E54;}
	.st29{fill:#5085C6;}
	.st30{fill:#50A895;}
	.st31{fill:#5D2A1B;}
	.st32{fill:#944BC0;}
	.st33{fill:#EB6E92;}
	.st34{fill:#5170B8;}
	.st35{fill:#312925;}
	.st36{fill:#D35E3B;}
	.st37{fill:#EEDCA1;}
	.st38{fill:none;}
	.st39{fill:#121210;}
	.st40{fill:#C7AA94;}
	.st41{fill:#C6A994;}
	.st42{fill:#425730;}
	.st43{fill:#41562F;}
	.st44{fill:#8B4B37;}
	.st45{fill:#8A4B37;}
	.st46{fill:#9A724A;}
	.st47{fill:#9B724B;}
	.st48{fill:#AF5C42;}
	.st49{fill:#9C724B;}
	.st50{fill:#B9B986;}
</style>
<g>
	<path d="M545.9,283.1c-0.1-1.5-0.3-3.1-0.4-4.6c-0.7-6.5-1.8-13-3.4-19.3c-1.3-5.5-2.5-11-4.1-16.5c-1.5-5.4-3.5-10.8-5.2-16.2
		c-1.7-5.3-3.9-10.3-6.6-15.1c-0.6-1.2-1.2-2.4-1.8-3.5c-1.7-3.4-3.3-6.9-5.2-10.2c-5.7-10.1-12.7-19.3-20.9-27.4
		c-5.5-5.4-11.2-10.7-17.1-15.6c-7.5-6.2-15.1-12.2-23.4-17.2c-3.9-2.4-7.9-4.6-11.8-6.9c-5-3-10.2-5.5-15.6-7.7
		c-5.7-2.2-11.4-4.2-17.2-6.2c-7.5-2.6-15.3-4.3-23.2-5.1c-3.2-0.3-6.5-0.5-9.7-0.9c-7-0.9-14-1.5-21.1-1.8
		c-11.3-0.4-22.5-0.2-33.7,1.5c-10.4,1.5-20.5,4.1-30.4,7.4c-6.6,2.2-13,5.2-19.4,7.8c-5.1,2.1-10.1,4.4-14.8,7.3
		c-9.7,5.8-19.2,12-28,19.2c-4.2,3.5-8.2,7.2-11.9,11.1c-6.8,7.2-12.9,15.1-18.7,23.1c-2.2,3.1-4.4,6.2-6.6,9.4
		c-2.9,4.2-5.3,8.6-7.8,13.1c-3.1,5.5-5.8,11.2-8,17.2c-2.2,6.1-4.7,12.2-6.4,18.5c-2.8,10-4.3,20.3-5.3,30.6
		c-0.3,3.4-0.3,6.9-0.6,10.3c-0.6,6.1-0.4,12.2-0.4,18.3c0,1.8,0.1,3.7,0.3,5.5c0.8,6,1.6,12,2.5,17.9c0.8,5.1,1.8,10.1,2.8,15.2
		c0.9,4.9,2.9,9.4,4.5,14c3,8.6,6.8,16.9,10.8,25.1c4.1,8.3,8.9,16.2,14.1,23.9c6.2,9.1,13.4,17.3,21.4,24.9c3,2.9,6.3,5.5,9.6,8.2
		c4.5,3.6,9,7.2,13.6,10.5c2.7,2,5.7,3.6,8.6,5.4c2.4,1.4,4.8,2.9,7.2,4.2c7.3,4.1,14.8,7.6,22.4,10.9c7.1,3,14.3,5.7,21.8,7.6
		c11.2,2.9,22.7,4.4,34.2,5.2c5.7,0.4,11.5,0.5,16.2,0.6c4.2,0,7.4,0,10.7,0c5.7,0.1,11.3-0.2,16.9-1.2c8.9-1.6,17.7-3.8,26.4-6.3
		c6.6-1.9,12.9-4.5,19.3-6.9c6.9-2.6,13.5-5.7,19.8-9.6c7.6-4.7,15.3-9.3,22.5-14.8c1.2-0.9,2.4-1.7,3.6-2.6
		c6-4.7,11.4-9.9,16.5-15.5c6.3-6.9,12.3-14.1,17.5-21.8c3.9-5.6,7.6-11.4,11.1-17.2c2.8-4.6,5.4-9.3,7.8-14.1
		c4.8-9.5,8-19.6,10.7-29.8c1.7-6.5,2.8-13.1,4.1-19.6c1.2-6.2,1.9-12.5,2.5-18.8C547.2,297.3,546.2,290.2,545.9,283.1z
		 M191.8,359.3c2-6,8.7-10.5,15-10.4c2.3,0,4.4,0.7,6.2,1.9c4.2,2.9,7.4,6.7,8.4,11.9c0.6,2.7,0.4,5.4-0.6,8
		c-2.3,5.9-9.2,7.1-12.8,5.5c-2.7-1.2-4.9-3-6.5-5.5c-1.3-2.1-1.6-4.3-1.1-6.8c0.8-3.5,4.6-5.8,8.1-5.4c1.6,0.2,2.6,1.1,2.9,2.6
		c0.3,1.4,0.3,2.8-0.3,4.1c-0.8,2-2,2.5-4.3,2c0.1-0.4,0.3-0.8,0.3-1.2c0.1-0.9-0.1-1.4-0.7-1.7c-0.7-0.3-1.3-0.1-1.8,0.4
		c-1,0.9-1.2,2.4-0.7,3.6c0.5,1.1,1.4,1.7,2.5,2c2.4,0.6,4.5,0.1,6.3-1.7c2.3-2.4,2.9-7.4,1.2-10.3c-1.6-2.6-4.1-3.5-7-3.2
		c-7.6,0.7-12.1,8-9.2,15.2c1.9,4.8,5.6,7.8,10.5,9.3c3.5,1.1,6.9,0.4,10-1.4c1.3-0.7,2.4-0.8,3.8-0.5c2.5,0.6,4.9,1.6,7.1,2.9
		c3.7,2.1,7.3,4.5,10.7,7.3c-0.1,4-0.2,8,0.8,12c-0.6,0-1,0.1-1.4,0.1c-1.6,0.1-3.2,0.1-4.8,0.3c-1,0.1-1.9,0-2.6-0.7
		c-2.9-2.6-6.3-4.2-10-5.5c-4.8-1.6-9.5-3.4-14.3-5.1c-1.9-0.7-3.8-1.5-5.7-2.3c-5.9-2.5-9.4-7.1-10.9-13.3
		C189.7,368.8,190.2,364,191.8,359.3z M225.9,234.3c-2.3-1.4-4.7-2.7-7.1-4.1c-2.3-1.3-4-3.2-5.1-5.6c-0.5-1.1-0.6-2.2,0-3.4
		c1-1.8,1.8-3.7,2.8-5.5c5.8-10.6,12.9-20.4,21-29.3c5.1-5.6,10.4-11,16-16.1c1.5-1.4,3.2-2.6,4.9-3.8c3.2-2.3,6.5-4.6,9.8-6.8
		c8-5.4,16.4-9.8,25.5-13c0.9-0.3,1.7-0.3,2.5,0.1c1.4,0.6,2.5,1.6,3.3,2.8c0.9,1.4,1.7,2.9,2.5,4.4c0.9,1.9,1.6,3.9,2.4,5.9
		c0.2,0.4,0.5,0.8,0.9,1.4c0.3-0.5,0.6-0.9,0.5-1.1c-0.2-0.9-0.4-1.7-0.7-2.5c-1.1-3.5-1.6-7-1.4-10.7c0.1-1.7,0.2-2.3,1.2-4.1
		c2-0.6,4.1-1.3,6.2-1.8c5.4-1.2,10.7-2.5,16.2-3.4c8.7-1.5,17.5-2.4,26.3-2.1c4.4,0.1,8.8,0,13.2,0.2c4.1,0.2,8.2,0.7,12.3,1.1
		c5.8,0.5,11.5,1.6,17.2,2.8c4.4,0.9,8.7,2.1,13.1,3.1c1.2,0.3,1.9,0.9,2.5,2c1.1,1.9,1.5,4,1.1,6.2c-0.5,2.7-1.5,5.2-2.7,7.7
		c-0.3,0.7-0.6,1.3-0.9,2c-0.1,0.2,0.1,0.6,0.3,0.7c0.2,0.1,0.6,0.1,0.8-0.1c0.3-0.2,0.4-0.6,0.6-0.9c0.9-1.6,1.8-3.2,2.6-4.8
		c1.1-2.1,2.5-4,4-5.8c0.4-0.5,0.9-1,1.4-1.4c1.3-1.2,2.7-1.4,4.5-0.8c4.3,1.7,8.3,3.7,12.2,6c6.5,3.8,12.9,7.7,18.7,12.5
		c8.2,6.8,16,14.1,21.9,23.2c1,1.5,2,2.9,3,4.3c3.7,5.2,6.4,10.9,8.5,16.9c2.8,7.7,5.2,15.6,6.9,23.7c1,4.9,1.4,9.9,1,14.9
		c-0.3,4.1-0.8,8.2-2.4,12.1c-1.1,2.6-2.4,5.2-3.7,7.8c-0.4,0.9-1,1.8-1.4,2.7c-0.7,1.8,0.3,3.1,2.1,3.2c0.7,0,1.5-0.1,2.2-0.2
		c5.3-0.9,10.1-3.1,14.7-5.7c0.6-0.3,1.1-0.7,1.7-1c0.1,0,0.1,0,0.4,0c0.3,0.9,0.2,1.8,0.1,2.7c-0.4,3.2-0.7,6.4-1.4,9.6
		c-0.5,2.7-1.3,5.3-2.1,7.9c-0.9,2.9-1.8,5.7-3.2,8.4c-1,2-0.4,3.4,1.8,4.1c2,0.6,4.2,0.9,6.3,1.2c1.7,0.2,3.3,0.2,5.2,0.2
		c-0.9,6.6-3.3,12.5-7.2,17.8c-0.6-0.3-0.4-0.8-0.4-1.2c-0.2-1.9-0.2-3.8-0.7-5.7c-1.3-6.1-4.8-10.8-10-14.3c-1.9-1.2-4-1.8-6.2-2.2
		c-0.6-0.1-1.3-0.2-2.1-0.4c-0.3-1.5-0.2-2.9-0.2-4.4c0-0.7,0-1.3-0.2-2c-0.2-0.8-0.8-1.2-1.4-1.1c-0.7,0.1-1.1,0.5-1.2,1.2
		c-0.1,0.6-0.1,1.3-0.2,2c0,0.3-0.1,0.6-0.2,0.9c-2.7,0-5.3,0-7.9,0c-0.5-1.5-0.2-2.9-0.2-4.2c-0.1-1.4-0.1-2.8-0.1-4.2
		c0-1.4,0-2.8,0-4.2c2-0.5,4,0.1,5.9,0.1c2,0,4,0.1,6,0.1c2,0,3.9,0.1,6.1,0.1c0.1,0.6,0.2,1.1,0.2,1.6c0,1.9-0.1,3.8-0.1,5.7
		c0,0.6,0,1.2,0.1,1.8c0.1,0.7,0.8,1.1,1.5,1.1c0.7,0,1.1-0.4,1.3-1c0.1-0.4,0.2-0.9,0.2-1.3c0-3.8,0-7.6,0-11.5
		c0-0.4,0-0.7-0.1-1.1c-0.2-0.6-0.6-1-1.3-1c-0.7,0-1.1,0.4-1.3,1c-0.1,0.6-0.2,1.1-0.3,1.8c-1.4,0.2-2.7,0.1-4,0
		c-6.5-0.3-13.1-0.7-19.6-1c-1,0-1.9,0-2.9,0c-0.4,0-0.7,0-1.1,0.1c-0.9,0.2-1.4,0.7-1.5,1.4c0,0.8,0.6,1.5,1.5,1.5
		c0.9,0.1,1.8,0,2.6,0.1c1.2,0.1,2.3,0.2,3.6,0.2c0.1,0.6,0.2,1.1,0.2,1.5c-0.1,6.2-0.3,12.3-0.4,18.5c0,1.5-0.6,2.6-1.7,3.6
		c-5.2,5-7.6,14.2-6.2,20.6c1,4.4,3.2,8,6.4,11.1c4.8,4.8,10.7,7.4,17.1,9c6.4,1.6,12.5,1,18.6-1.5c0.9-0.4,1.7-0.7,2.9-1.2
		c-0.2,1.2-0.2,2-0.5,2.9c-1.4,4.7-3.5,9-6.7,12.8c-1.1,1.3-2.3,1.8-3.8,1.3c-1.6-0.5-3.2-1-4.8-1.6c-0.6-0.2-1.2-0.6-1.9-0.7
		c-0.3-0.1-0.7,0.3-1,0.4c0.1,0.9,0.6,1.1,1.2,1.4c0.8,0.5,1.6,1,2.4,1.5c1.1,0.7,1.9,1.6,2.4,2.9c-0.3,0.3-0.6,0.6-0.9,0.9
		c-4.5,3.8-9.4,6.8-14.8,9c-4.3,1.8-8.8,2.7-13.5,3.2c-4,0.5-7.9,0.4-11.9,0.1c-0.7-0.1-1.3-0.1-2-0.1c-1.6,0.1-2.3,1.3-1.6,2.8
		c1.1,2.2,2.5,4.3,4.3,6.1c1.1,1.1,2.2,2.1,3.4,3.3c-0.4,0.2-0.7,0.4-1.1,0.5c-5.8,1.4-11,4.1-15.7,7.8c-1.9,1.4-3.6,3-5.4,4.6
		c-3.1,2.9-5.4,6.4-7.3,10.2c-1.3,2.6-2.3,5.4-3,8.3c-0.3,1.1-0.4,2.2-0.3,3.3c0.1,1.6,1.7,2.4,3.1,1.5c0.6-0.4,1.1-0.9,1.6-1.5
		c0.8-0.8,1.5-1.7,2.2-2.5c2.7-3,6.1-5.1,10-6.2c5.8-1.6,11.7-2.3,17.7-1.6c1.7,0.2,3.3,0.4,5.2,0.6c-0.4,0.3-0.5,0.5-0.7,0.6
		c-4.4,2.1-8.1,5.2-11.5,8.8c-2.8,2.9-5.7,5.8-9.1,7.9c-4,2.5-8.2,4.6-13,5.3c-8.6,1.3-16.1-0.9-21.8-7.6c-3.5-4-6-8.7-7.9-13.7
		c-0.3-0.9-0.6-1.9-1.8-1.9c-1.1,0-1.5,0.8-1.9,1.6c-0.5,1.4-1,2.7-1.6,4.1c-0.1,0.3-0.3,0.7-0.4,1c-1.7-0.5-2.9-1.2-3.9-2.4
		c-3.3-4-6-8.4-6.9-13.6c-0.3-1.6-0.3-3.4-0.1-5c0.2-3,1.3-5.9,2.7-8.6c1.3-2.4,3.2-4,5.9-4.6c2.2-0.5,3.9,0.4,5.3,2.5
		c-0.5,0-0.9,0-1.3-0.1c-2-0.3-3.7,0.4-4.9,1.9c-2.3,2.6-3.2,5.6-1.8,9c1.4,3.4,3.9,5.4,7.8,5.5c6,0.2,11.6-3.7,13.6-9.6
		c1.6-4.5,1.6-9.1-0.3-13.6c-0.7-1.6-1.5-3-2.6-4.3c-0.3-0.4-0.7-0.7-1.1-1.2c12.9-9.5,23.2-21.1,32.1-34.3
		c4.3-1.5,8.6-1.2,12.8,0.5c1.8,0.7,3.5,1.6,5.2,2.3c0.4,0.2,0.8,0.4,1.2,0.5c0.2,0,0.6-0.2,0.7-0.3c0.1-0.2,0-0.6-0.2-0.8
		c-0.3-0.3-0.8-0.4-1.1-0.7c-2-1.1-4-2.2-6-3.3c-3.5-2.1-6.2-4.9-7.8-8.9c3.9-10.9,6.2-22.3,7.2-34.1c1.1-0.2,2-0.3,2.9-0.4
		c2.9-0.2,5.9-0.3,8.8-0.5c0.8,0,1.7,0,1.9-1c-0.2-0.9-1-1-1.7-1.2c-3.1-0.5-6.1-0.9-9.2-1.4c-0.8-0.1-1.6-0.3-2.5-0.4
		c-0.1-0.6-0.1-1-0.1-1.5c-0.1-3.7-0.1-7.5-0.3-11.2c-0.2-5.8-1.3-11.4-2.7-17c-0.4-1.6-0.1-2.8,0.8-4.1c2.3-3.2,5.1-5.7,8.7-7.2
		c1.9-0.8,3.8-1.6,5.7-2.5c0.3-0.1,0.6-0.3,0.9-0.5c0.2-0.7-0.1-1-0.7-1c-0.4,0-0.9,0.2-1.3,0.3c-1.4,0.5-2.8,1-4.1,1.5
		c-2.6,1-5.2,1.5-7.9,1.6c-2.3,0.1-4.2-0.7-6-1.8c-0.5-0.3-0.8-0.8-1.1-1.3c-5.8-11.5-14-21.2-23.6-29.7
		c-5.3-4.7-11.3-8.5-17.5-11.8c-1.7-0.9-3.4-1.8-5.1-2.6c-0.8-0.4-1.3-0.9-1.6-1.7c-1.9-4.1-1.5-8.1,0.1-12.2c0.5-1.2,1-2.4,1.5-3.7
		c0.1-0.4,0.2-0.8,0.2-1.2c-0.5-0.5-0.9-0.4-1.2,0c-0.3,0.3-0.4,0.8-0.6,1.2c-0.7,1.5-1.3,3.1-2.1,4.6c-1.7,3.3-4.4,5.4-7.8,6.8
		c-1.4,0.5-2.7,0.5-4.1,0.1c-8.6-2.6-17.4-3.8-26.2-4.6c-0.3,0-0.6-0.1-1-0.2c-0.2-1.3-0.5-2.6-0.6-3.9c-0.2-2.3-0.3-4.5-0.5-6.8
		c-0.1-0.7-0.2-1.5-0.4-2.1c-0.2-0.6-1.2-0.6-1.4,0c-0.2,0.4-0.3,0.8-0.3,1.3c-0.4,3.1-0.8,6.1-1.3,9.2c-0.1,0.8-0.3,1.6-0.4,2.3
		c-0.4,0.1-0.7,0.2-1,0.2c-6.5,0.2-12.9,1.4-19.2,2.8c-2.1,0.5-4.1,1-6.2,1.7c-1.4,0.5-2.5,0.3-3.7-0.5c-1.7-1-3.3-2.2-4.5-3.8
		c-1.9-2.5-3.5-5.1-4.5-8c-0.2-0.7-0.5-1.3-0.8-1.9c-0.9-0.1-1.2,0.3-1.1,0.9c0.2,0.9,0.5,1.7,0.8,2.5c1.1,3,1.8,6,1.8,9.2
		c0,2.1-0.6,3.9-1.5,5.7c-0.2,0.5-0.8,0.8-1.3,1.1c-1.9,1.1-3.9,2.1-5.8,3.1c-5.8,3.2-10.9,7.5-15.9,11.8
		c-6.3,5.4-11.7,11.6-16.3,18.4c-2.3,3.4-4.2,6.9-5.8,10.6c-0.5,1.3-1.4,2-2.6,2.5c-2.7,1.1-5.5,1.2-8.2,0.5c-1.7-0.4-3.3-1.1-5-1.7
		c-1.1-0.4-2.1-1-3.2-1.4c-0.2-0.1-0.7,0.3-1.2,0.5c0.6,0.5,1,0.8,1.4,1c1.6,0.8,3.2,1.6,4.8,2.3c4.2,1.8,6.7,5.2,8.4,9.2
		c0.4,0.8,0.3,1.7,0.1,2.6c-0.8,4.2-1.7,8.4-2.4,12.6c-0.4,2.2-0.5,4.4-0.6,6.6c-0.2,3.5-0.3,7.1-0.4,10.6c-0.7,0.6-1.6,0.6-2.5,0.7
		c-3.1,0.5-6.2,1-9.4,1.4c-0.6,0.1-1.4,0.1-1.5,1c-0.1,0.6,0.5,1.1,1.5,1.3c3.3,0.4,6.6,0.8,9.9,1.2c0.7,0.1,1.4,0.2,2.3,0.3
		c0.2,1.3,0.3,2.4,0.4,3.6c0.4,4.9,1.4,9.8,2.8,14.5c1,3.2,2.1,6.4,3.2,9.6c0.3,0.9,0.4,1.7,0.1,2.6c-0.8,2.4-2,4.5-4,6.2
		c-2.2,1.9-4.7,3.5-7.4,4.8c-1,0.5-2,0.8-2.7,1.5c0,0.8,0.4,1,0.9,0.9c0.6-0.1,1.1-0.4,1.6-0.6c3.4-1.4,6.9-2.4,10.6-2.9
		c2.1-0.3,4.2-0.3,6.3,0.7c0.9,0.4,1.6,0.9,2.1,1.8c0.6,1.1,1.2,2.2,1.8,3.3c3.1,5.4,6.6,10.4,10.8,15c0.2,0.3,0.4,0.6,0.8,1
		c-0.7,0.1-1.1,0.3-1.6,0.3c-2.7,0-5.4,0.1-8.2,0c-5.4,0-10.7,0.6-15.9,2.2c-4.5,1.4-8.4,3.8-12,6.8c-4.4,3.8-6.9,8.7-8.6,14.1
		c-0.2,0.8-0.4,1.5-0.7,2.5c-5.6-3.9-11.1-7.6-17.8-9.3c0.1-0.3,0.1-0.5,0.2-0.7c3.2-5.9,2.9-11.9-0.2-17.7
		c-1.7-3.3-4.3-5.9-7.3-8.1c-2.3-1.6-4.8-2.6-7.6-2.7c-0.4,0-0.9-0.1-1.5-0.1c-0.3-0.7-0.7-1.4-1-2.1c-1.7-4.3-2.7-8.7-3.9-13.1
		c-1.7-6.7-2.6-13.6-3.6-20.4c-1-7.1-1.6-14.2-1.1-21.3c0.4-5.3,0.6-10.6,1.6-15.8c1.2-6.2,2.2-12.4,4.1-18.5
		c1.8-6,3.6-12.1,5.5-18.2c0.1-0.3,0.2-0.6,0.3-0.8c0.5-2,1.9-2.9,3.8-3.1c1.9-0.2,3.8-0.2,5.7,0.4c2.2,0.7,4.3,1.5,6.4,2.3
		c0.6,0.2,1.1,0.5,1.7,0.6c0.3,0.1,0.6-0.2,1.1-0.4C226.4,234.8,226.2,234.5,225.9,234.3z M486.4,295.9c-0.4,0.5-0.9,0.4-1.4,0.5
		c-0.4,0.1-0.9,0.2-1.3,0.3c-0.5,0.1-1,0.3-1.5,0.4c-0.5,0.2-1,0.4-1.4,0.6c-0.4,0.2-0.8,0.4-1.2,0.6c-0.4,0.2-0.9,0.4-1.5,0.7
		c-0.3-1.2-0.2-2.3,0-3.3C480.4,295.3,484.3,295.4,486.4,295.9z M373.9,429.9c0.7,1.6,1.4,3.2,2.3,4.8c3.4,6,8,10.8,14.2,14.1
		c1.2,0.7,2.4,1.4,3.5,2.3c-0.5-0.1-1.1-0.1-1.6-0.3c-4.1-1-8.1-2.3-11.8-4.3c-4.3-2.4-7.9-5.6-10.9-9.5c-0.4-0.5-0.7-1-1-1.5
		c-0.2-0.4-0.4-0.8-0.7-1.2c0.1-0.2,0.2-0.5,0.4-0.7c2.4-2.8,1.2-6.7-1-8.7c-0.7-0.6-1.3-1.2-2.1-1.7c-0.9-0.6-1.4-1.5-1.4-2.6
		c0-0.9-0.1-1.8-0.1-2.6c0-1.5,0-3.1,0-4.9c0.6,0.2,0.9,0.4,1.2,0.4c1.1,0.1,1.8-0.4,1.6-1.5c-0.1-0.6-0.3-1.1-0.6-1.6
		c-0.5-0.9-1.1-1.8-1.6-2.7c0.2-0.7,0.4-1.4,0.5-2.1c0.3-1.7-0.5-2.8-2.1-2.5c-2.1,0.4-4.1,0.1-6.1,0.1c-1.7,0-3.3,0.4-4.9,1.2
		c-0.6,0.3-1.2,0.6-1.8,0.9c-0.2-0.3-0.4-0.6-0.5-0.8c-2-4.3-5-7.8-8.3-11.1c-2.1-2.1-4.2-4.1-6.3-6.1c-0.7-0.7-1.4-1.5-2.4-2.6
		c0.7,0.1,1,0.1,1.3,0.2c5.6,1.5,11.3,2.5,17.2,2.7c0.5,0,1,0.1,1.5,0.1c0.1,0,0.3,0.1,0.6,0.2c0.2,1.4,0.4,2.9,0.6,4.4
		c0.3,2.4,0.6,4.8,0.8,7.2c0,0.3,0.1,0.6,0.1,0.9c0.1,0.6,0.3,1,0.9,1c0.6,0,0.9-0.4,1-1c0.1-0.5,0.1-1,0.2-1.5
		c0.4-3.1,0.7-6.3,1.1-9.4c0.1-0.5,0.2-1,0.3-1.6c0.6,0,1.1-0.1,1.6-0.1c0.8,0,1.6,0,2.5,0c0.1,0.6,0.2,1.1,0.2,1.6
		c0.5,8.6,3.1,16.4,7.8,23.6c3.2,4.9,7.1,9.4,11.3,13.5c0.4,0.4,0.8,0.8,1.4,1.4c-0.5,0.2-0.9,0.4-1.2,0.5c-1.7,0.2-3.4,0-5-0.4
		c-0.4-0.1-0.8-0.3-1.3-0.3C374.2,427.8,373.4,428.8,373.9,429.9z M344.2,355.6c-1.2-4.4-3.6-7.8-7.8-9.9c-0.3-0.1-0.5-0.3-0.9-0.5
		c1-1.1,2.4-1.4,3.6-2c1.2-0.7,2.5-1.3,3.7-1.9c1.2-0.6,2.4-1.2,3.7-1.9c0.2,0.3,0.3,0.5,0.4,0.7c2.2,14.2,4.3,28.3,5.6,42.6
		c0,0.3,0,0.6-0.1,1c-7.9,0-15.5-1.4-22.9-3.8c-1.9-3.1-2.9-7-2.6-9.8c0.5,0.4,1,0.7,1.4,1.1c3.1,2.2,7.2,2.3,10.3,0.2
		C343.6,367.9,345.8,361.6,344.2,355.6z M305.7,415.4c0.4,0.1,0.9,0,1.3,0c3.4,0,6.5,1.1,9.2,3.2c6.7,5.3,11.1,12.1,13.6,20.2
		c0.1,0.3,0.1,0.6,0.1,0.9c-3.1,0.3-6.1,0-9-0.7c-12.2-2.9-21.8-9.6-29-19.8c-2.1-3-3.7-6.3-4.6-10c-0.2-0.7-0.2-1.4-0.3-2.2
		c-0.2-2.3-2.4-2.7-3.6-1.5c-0.9,0.9-1.8,1.7-2.6,2.7c-3.3,3.9-5.5,8.3-6.7,13.3c-0.2,0.8-0.4,1.5-0.6,2.5c-0.6-0.3-1.1-0.4-1.5-0.6
		c-7-4.7-12-11-14.2-19.2c-1.1-4-1.1-8.2,0.2-12.2c0.7-2.2,1.7-4.2,3.5-5.8c0.7-0.6,1.5-1.1,2.4-1.5c2-0.8,4-0.1,5.2,1.7
		c0.8,1.3,1.1,2.7,1.1,4.2c0,4-1.5,7.4-4.1,10.5c-0.5,0.6-1.1,1.2-1.7,1.8c-0.5,0.6-0.9,1.2-0.6,2c0.3,0.9,1,1.3,1.9,1.3
		c1.5-0.1,3.1-0.2,4.6-0.5c5.4-1,9.7-3.8,13.1-8c0.3-0.4,0.6-0.8,1-1.3c0.5,0.3,0.9,0.6,1.3,0.9c1.3,0.9,2.6,1.9,4,2.7
		c4.4,2.6,7.9,6.1,10,10.8c0.1,0.3,0.3,0.5,0.5,0.7c0.8,0.9,2.2,0.8,2.7-0.3c0.3-0.7,0.6-1.4,0.7-2.1c1.4-6,1-11.9-1.4-17.7
		c-1.9-4.4-4.2-8.4-7.3-12c-0.3-0.3-0.5-0.7-0.9-1.2c3.4-2.2,6.4-4.5,8.5-8.2c2.5,1.7,4.9,3.3,7.6,5.1c0.7,9.5,4.3,18.2,9.1,26.7
		c-0.4,0.2-0.6,0.3-0.9,0.3c-3.7,0.7-6.7,2.5-9.3,5.1c-1.3,1.3-2.4,2.8-3.6,4.2c-0.4,0.5-0.7,1.1-0.9,1.7
		C304.1,414.3,304.6,415.2,305.7,415.4z M309.8,370.5c-1.9-1.3-3.5-2.4-5.1-3.5c0.7-2.1,1.4-4.1,1.8-6.2c0.4-2.1,0.4-4.2,0.6-6.4
		l24-21.3c0.2-0.1,0.4-0.1,0.8-0.3c0.1,3.8,0.3,7.4,0,11.1c-0.7,0-1.1,0.1-1.6,0.1c-5.9-0.2-10.5,2.3-14.2,6.7
		c-3.3,3.9-4.9,8.5-5.7,13.4C310.1,366.1,310,368.1,309.8,370.5z M415.5,349.9c-1.9-2.4-4-4.7-6-7.1c-5-6.1-9.9-12.3-14.8-18.4
		c-0.8-1-1.5-2-2.3-3.2c0.6-0.1,0.9-0.2,1.2-0.3c4.8-0.2,9.7-0.5,14.5-0.7c0.9,0,1.7,0,2.6,0.4c9.9,4.5,19.8,8.9,29.7,13.4
		c0.5,0.2,0.9,0.5,1.4,0.8c-1.1,2.3-2.3,4.5-3.7,6.5c-2.6,3.8-5.5,7.5-8.6,10.9c-1.9,2.1-3.8,4.1-5.7,6.2c-0.3,0.4-0.7,0.7-1.2,1.1
		c-0.3-0.3-0.6-0.6-0.8-0.8C419.8,355.8,417.7,352.8,415.5,349.9z M420.8,361.8c-1,1-1.9,1.8-3.1,3.1c0.4-1.9,0.6-3.3,1-5.1
		C419.5,360.6,420.1,361.2,420.8,361.8z M392.2,335.8c-7.7-5.7-15.5-11.2-23.9-15.8c-1-0.5-1.6-1.2-1.9-2.2
		c-0.8-2.7-1.8-5.4-2.7-8.3c1.4-0.9,2.7-1.8,4.1-2.6c1,0.4,1.5,1.1,2.1,1.7c3.4,3.6,6.7,7.2,10,10.9c7.1,7.7,14.3,15.4,22,22.6
		c0.2,0.1,0.3,0.3,0.5,0.7c-1.2,0.5-2-0.1-2.7-0.7C397.2,339.8,394.8,337.7,392.2,335.8z M397.3,342.7c-2.1,0.6-4.3,1-6.3,1.7
		c-2.1,0.8-4.2,1.7-6.2,2.8c-1.9,1-3.7,2.3-5.7,3.6c-0.5-1.4-1-2.8-1.5-4.1c-0.1-0.5-0.1-1,0-1.5c1.2-4.6,2.3-9.2,3.5-13.9
		c0-0.1,0.2-0.2,0.3-0.3C384.5,332.4,395.2,340.3,397.3,342.7z M367.1,340c1.8,1.7,3.7,3.4,5.5,5c1.2,1,2.1,2.3,2.5,3.8
		c0.4,1.4,0.9,2.8,1.4,4.5c-0.5,0.4-1.1,0.8-1.6,1.2c-2.8,2.6-5.1,5.7-6.7,9.2c-2.8,5.9-4.9,12.1-5.4,18.7c0,0.4-0.2,0.8-0.3,1.3
		c-1.4,0.4-2.6,0.3-4.1,0.1c1.7-15.3,4.2-30.4,6.3-45.9C365.7,338.8,366.4,339.4,367.1,340z M365.1,335.3c0.5-3.8,0.9-7.7,1.6-11.6
		c1.4,1.9,5.9,14.5,6.8,19.1c-1.8-0.9-2.9-2.5-4.3-3.7C367.8,337.9,366.5,336.6,365.1,335.3z M370.8,279.4c0.4-0.5,0.8-0.9,1.2-1.3
		c9.3-9.4,17.7-19.7,26.3-29.7c3.5-4.1,6.9-8.2,10.4-12.3c0.4-0.5,1-0.9,1.5-1.3c-0.2,0.5-0.4,1-0.7,1.4
		c-5.8,9.3-11.7,18.5-17.4,27.8c-3.3,5.3-6.4,10.7-9.5,16.1c-0.4,0.6-0.7,1-1.4,1.3c-2.8,1-5.5,2.1-8.4,3.2c-0.9-1.3-1.8-2.6-2.8-4
		C370.2,280.2,370.4,279.7,370.8,279.4z M370.5,262.1c1.6-4.2,3.1-8.2,4.6-12.3c1.5-4,3.1-7.9,4.8-12.3c0.3,0.7,0.5,1,0.5,1.3
		c0.3,3.1,0.7,6.1,1,9.2c0.1,1.5,0.2,3.1,0.4,4.6C380.3,254.4,372.7,260.8,370.5,262.1z M387.7,281.3c0.5-0.4,0.8-0.6,1.2-0.8
		c7.2-3.1,14.4-6.1,21.7-9.2c0.6-0.2,1.1-0.7,1.9-0.4l0.1-0.1c-2.4,2.8-4.7,5.6-7.1,8.4c-1.2,1.4-2.5,2.8-3.8,4.3
		C397,282.8,392.5,282.1,387.7,281.3z M422,294.4c4,0.1,8.1,0.1,12.1,0.2c1.2,0,2.3,0,3.5,0.3c-0.7,0.1-1.4,0.1-2.2,0.2
		c-0.8,0.1-1.6,0.2-2.4,0.3c-9.6,0.9-19.2,1.8-28.7,2.8c-7.7,0.8-15.3,1.9-22.9,3.2c-0.6,0.1-1.2,0.1-1.7,0.3
		c-2.4,0.9-4.3-0.1-6.1-1.3c0.5-2.4,1-4.6,1.5-7c0.3,0,0.8-0.2,1.3-0.1c4.4,0.2,8.8,0.5,13.2,0.7c3.7,0.1,7.5,0.2,11.2,0.2
		C407.9,294.3,415,294.3,422,294.4z M381.6,306.8c2.4,0.5,23,9.8,25.1,11.3l0,0.2l-0.2,0.1c-0.7,0-1.5,0.1-2.2,0.1
		c-4.5,0.2-9.1,0.3-13.5,0.5C387.8,315.7,382.4,308.6,381.6,306.8z M420.5,321.6c-2.7-1.2-5.5-2.5-8.3-3.7c-1-0.4-1.8-1-2.4-1.8
		c-3.6-4.8-7.2-9.5-10.7-14.2c-0.1-0.2-0.1-0.4-0.2-0.5c0.2-0.1,0.3-0.3,0.4-0.3c17-1.7,34-3.4,51-5c0.4,0,0.8,0,1.4,0
		c-0.1,9.1-4.7,30-8.7,36c-0.3-0.1-0.6-0.1-0.8-0.3C435.1,328,427.7,324.9,420.5,321.6z M442.6,289.3c-3.2-0.3-6.4-0.9-9.6-1.2
		c-3.1-0.4-6.3-0.6-9.4-1c-3.2-0.4-6.4-0.8-9.6-1.3c-3.2-0.5-6.3-0.9-9.5-1.7c0.1-0.3,0.1-0.5,0.2-0.6c3.5-4.2,7-8.5,10.5-12.7
		c0.7-0.9,1.5-1.5,2.6-2c9.6-4,19.3-8,28.9-11.9c0.2-0.1,0.4-0.1,0.9-0.2c3.8,10.9,4.5,22.1,4.7,33.5
		C448.9,290.2,445.8,289.6,442.6,289.3z M445.3,254.2c-1.1,0.5-2.2,0.9-3.3,1.3c-8.6,3.1-17,6.9-25.5,10.4c-1.4,0.6-2.7,0.8-4.3,0.6
		c-3.7-0.3-7.3-0.4-11-0.6c-2.4-0.1-4.8-0.3-7.7-0.4c0.5-1,0.8-1.6,1.2-2.2c1.7-2.8,3.4-5.7,5.2-8.4c4.7-7.4,9.5-14.7,14.2-22
		c2.4-3.8,4.6-7.7,6.9-11.5c0.3-0.4,0.5-0.8,0.8-1.3c6.9,4.9,21.1,21.3,24.6,33.5C446.1,253.8,445.7,254,445.3,254.2z M418.9,219.5
		c-2.7,2.4-5.5,4.8-8.3,7.3c-8.1,7.3-16.1,14.6-24.2,21.9c-0.7,0.7-1.5,1.4-2.5,2.1c-0.4-0.8-0.3-1.4-0.4-2c-0.1-0.7-0.2-1.3-0.2-2
		c-0.4-3.6-0.9-7.1-1.3-10.7c-0.1-0.7-0.1-1.4,0.2-2.1c3.5-9.8,7.7-19.4,11.5-29.1c0.2-0.6,0.5-1.2,0.9-1.9
		c9,4.3,17.7,8.7,25.5,15.1C419.6,218.7,419.3,219.2,418.9,219.5z M390.9,204c-3.8,9.2-7.8,18.4-11.1,27.8c-0.3,0.9-0.7,1.5-1.4,2.2
		c-4,3.5-7.9,7-11.9,10.5c-0.3,0.2-0.6,0.4-0.8,0.6c-0.2-0.1-0.3-0.1-0.3-0.1l-0.1-0.2c-1.9-16.3-3.8-32.7-5.6-49
		c4-0.9,27,3.6,32.1,6.3C391.4,202.7,391.2,203.4,390.9,204z M360.2,220c0.7,6,1.4,12,2.1,18c0.4,3.1,0.6,6.1,1,9.2
		c0.7,5.3,1.4,10.6,2.1,16c0,0.3,0.1,0.6,0.2,0.9c0.3,2,0.4,3.9-0.7,5.7c-0.6,1-0.9,2.3-1.4,3.5c-0.2,0.5-0.5,1-0.8,1.6
		c-1.6-0.5-3.2-0.9-4.7-1.4c-0.5-0.8-0.3-1.6-0.3-2.4c0.2-6.9,0.4-13.8,0.5-20.7c0.1-3.4,0.2-6.8,0.2-10.1
		c0.1-9.9,0.1-19.9,0.2-29.8c0-0.8,0-1.6,0-2.4c0.1,0,0.3,0,0.4,0C359.3,212,359.8,216,360.2,220z M367.3,285.2
		c1.3,2.4,1.9,4.9,1.9,7.2c0,3-0.5,5.4-1.7,7.7c-2.6,4.9-6.6,7.3-12.2,7.1c-7.2-0.4-13.2-6.2-13.7-13.4c-0.5-7.1,4.7-13.8,11.7-15.2
		C359.1,277.4,364.4,279.9,367.3,285.2z M354,372.7c-0.9-1.9-0.8-3.7-1.1-5.4c-1.2-8.2-2.3-16.4-3.5-24.7
		c-0.9-6.7-1.9-13.4-2.8-20.1c-0.1-0.4,0-0.9-0.2-1.3c-0.5-1.6-0.3-3,0.4-4.4c0.7-1.4,1.1-2.9,1.6-4.3c0.3-0.8,0.5-1.5,0.8-2.4
		c1.7,0.4,3.3,0.8,5.2,1.3C354.8,331.7,354.1,352.1,354,372.7z M273.7,291.2c-0.2,0-0.4-0.1-0.6-0.1c0-0.1,0-0.2,0.1-0.3
		c3.7-0.6,7.4-1.2,11.1-1.8c5.4-0.8,10.7-1.6,16.1-2.4c6.9-1.1,13.8-2.2,20.6-3.4c2.2-0.4,4.5-0.8,6.7-1.2c0.6-0.1,1.2-0.1,1.7,0.1
		c2.6,1.3,5.2,2.6,7.9,4c-0.2,1.2-0.4,2.3-0.5,3.4c-0.3,0.1-0.5,0.2-0.7,0.2C315.2,290.5,294.4,290.2,273.7,291.2z M328.5,304.1
		c-2.3,1.7-15.7,7.4-20.4,8.8c0.5-1.4,4.8-6.9,8-10.2C320,303.1,324,303.6,328.5,304.1z M306.9,269.7c1.7-0.6,7.6-1.2,11.7-1
		c1.9,2.7,3.8,5.4,5.8,8.1C322.2,276.6,311,272,306.9,269.7z M328.5,263.5c-4.6-5-9.4-9.7-14.1-14.6c-4.6-4.7-9.3-9.4-13.9-14.2
		c-0.3-0.3-0.5-0.6-0.7-1c0.4,0.1,0.8,0.2,1.1,0.5c10.6,7.3,21.1,14.7,31.7,22c3,2.1,5.9,4.1,8.9,6.1c0.4,0.3,0.8,0.6,1.3,0.9
		c3.1,2.3,3.1,2.3,4.5,6c0.6,1.6,1.4,3.1,1.6,4.8c-1.2,0.5-2.3,1-3.4,1.6c-1,0.6-2,1.3-3.1,2c-0.5-0.4-1-0.8-1.4-1.3
		C336.6,272.3,332.6,267.9,328.5,263.5z M336.6,239.1l0.1-0.2l0.2,0.1c0.2,0.1,0.4,0.2,0.5,0.4c2.1,1.7,4.3,3.4,6.4,5.1
		c1.5,1.2,2.9,2.5,4.5,3.9c-0.5,4.3-1,8.6-1.5,12.9c-0.2-0.1-0.5-0.1-0.5-0.2C343,253.6,339.8,246.4,336.6,239.1z M348.6,244.6
		c0,0.2-0.2,0.4-0.3,0.7c-0.3-0.2-0.7-0.3-0.9-0.5c-3.7-2.9-7.3-5.9-11-8.8c-1-0.7-1.6-1.6-2.2-2.7c-4.7-9.9-8.7-20.1-12.6-30.3
		c-0.1-0.2-0.1-0.4-0.1-0.6c4-2.5,25.7-7.4,31.5-7C351.5,211.8,350,228.2,348.6,244.6z M331.4,234.6c0.4,1,0.6,1.9,0.6,3
		c-0.2,4.9-0.4,9.8-0.6,15.2c-14.2-9.8-28.2-19.3-41.8-29.5c0.8-1.5,2-2.6,8.5-8c3.1-2.5,6.2-4.9,9.7-6.9c3.4-2,6.9-3.9,10.7-5.4
		c0.3,0.7,0.6,1.3,0.8,1.9C322.7,215,326.8,224.9,331.4,234.6z M316.5,266.1c-0.2,0.5-0.7,0.4-1.1,0.4c-3.2,0.3-6.4,0.5-9.6,0.9
		c-1.5,0.2-2.9-0.1-4.3-0.7c-5.8-2.5-11.6-5-17.3-7.6c-4.2-1.9-8.4-3.9-12.6-5.8c-0.5-0.2-0.9-0.5-1.5-0.8
		c3.6-10.4,9.5-19.4,17-27.3C287.2,225.4,316.5,266.1,316.5,266.1z M273.9,257.7c8.8,4.3,17.8,8.4,26.9,12.1
		c0.9,0.3,1.5,0.8,2.1,1.5c2.6,3.6,5.2,7.1,7.7,10.7c0.1,0.1,0.1,0.3,0.2,0.7c-15.1,2.4-30,4.7-44.9,7c-0.6,0.1-1.1,0-1.7,0
		c-1.1-8.1,1.4-27.2,4.9-34.3C270.8,256.2,272.4,256.9,273.9,257.7z M273.9,297.9c3.3,0.3,6.6,0.6,9.9,0.9c3.2,0.3,6.4,0.5,9.7,0.9
		c3.3,0.3,6.6,0.7,9.8,1.2c3.2,0.4,6.4,1,9.9,1.5c-0.3,0.4-0.4,0.7-0.5,0.9c-2.3,3-4.7,6-7,9.1c-1,1.3-2.2,2.3-3.7,3
		c-4.8,2-9.6,4.1-14.4,6.2c-4.2,1.8-8.3,3.8-12.4,5.7c-0.7,0.3-1.3,0.6-2,0.8c-3.3-4.3-8.8-22.2-8.8-31.1
		C267.5,297.1,270.7,297.7,273.9,297.9z M276.2,329.9c7.7-3.4,15.5-6.7,23.2-10.1c1.8-0.8,3.6-1.6,5.4-2.5c0.8-0.4,1.5-0.5,2.3-0.5
		c3.6,0.3,7.2,0.5,10.8,0.8c1.6,0.1,3.2,0.3,5.3,0.4c-8.7,13.4-17.1,26.4-25.7,39.6c-1.3,0.2-2.8,0.4-4.1,0.6
		c-7.2-6.6-13.4-15.8-18.9-27.3C274.8,330.3,275.6,330.2,276.2,329.9z M316.7,336c-2.9,3.4-5.8,6.8-8.7,10.2
		c-0.2,0.2-0.4,0.3-0.6,0.4c0.4-0.8,0.8-1.6,1.3-2.4c6.3-9.7,12.6-19.3,18.8-29c2.2-3.3,4.3-6.7,6.4-10.1c0.5-0.8,1.1-1.3,2-1.6
		c1.4-0.5,2.9-1.1,4.4-1.6c0.7,0.9,1.3,1.7,2,2.6c-0.3,0.5-0.6,1-1,1.4c-2.6,3.3-5.3,6.7-8,10C327.8,322.6,322.3,329.3,316.7,336z
		 M334.3,330.2c2.5-2.4,5-4.8,7.8-6.9c0,0.4,0,0.8-0.1,1.2c-0.5,1.2-1,2.4-1.6,3.6c-1.7,3.6-3.5,7.3-5.2,10.9
		c-0.2,0.4-0.4,0.7-0.8,1.6C333.9,336.8,333.9,333.6,334.3,330.2z M374.3,413.3c-4.2-5.7-6.6-12.1-8-18.9c-0.8-3.8-0.5-7.6-0.1-11.4
		c0.6-6,2.3-11.7,4.8-17.1c1.6-3.4,3.7-6.5,6.5-9.1c3.1-2.9,6.5-5.6,10.3-7.5c4.4-2.2,9-3.4,14-3.1c1.8,0.1,3.6,0.5,5.3,1.2
		c5.6,2.3,8.8,7.5,7.9,13.5c-0.7,4.8-3,8.5-7.6,10.6c-3.4,1.5-7.4,0.9-9.9-1.4c-2.4-2.3-2.2-6.5-1-8.4c1.8-2.8,5.4-3.5,8.1-1.5
		c0.6,0.4,1,1,1.6,1.5c0.7,0.7,1.5,0.6,2.1-0.1c0.7-0.7,1-1.6,1-2.6c0.2-3-1.8-6.2-4.8-7.6c-3.1-1.4-6.2-1.7-9.5-0.7
		c-6.4,1.8-11.5,5.5-15.1,11.1c-3.9,6.1-5.7,12.8-6,20c-0.2,4.8,1,9.3,2.3,13.9c0.1,0.4,0.3,0.8,0.6,1.2c0.6,0.8,2.2,0.7,2.5-0.4
		c0.1-0.6,0.3-1.1,0.4-1.7c1-5,3.4-9.4,6.5-13.4c1.7-2.2,3.8-4.1,6.2-5.6c1.1-0.7,2.4-1.1,3.6-1.5c0.7-0.3,1.4-0.2,2.1,0.2
		c2.6,1.1,5.2,1.5,8,0.9c0.4-0.1,1,0.1,1.4,0.3c1.8,0.9,3.2,2.2,4.1,3.9c2.5,4.5,2.7,9.2,0.6,13.8c-1.7,3.7-4.5,6.1-8.7,6.6
		c-2.1,0.2-3.9-0.3-5.3-2.1c-1.5-2-1.5-4.6,0-6.6c0.9-1.3,1.9-1.6,3.5-1.1c0.3,0.1,0.7,0.3,1,0.4c1.5,0.5,2.4,0,2.8-1.5
		c0.4-1.6,0.2-3.1-0.7-4.4c-0.9-1.4-2.1-2.4-3.7-2.9c-2.2-0.8-4.5-0.7-6.7,0.2c-2.5,1.1-4.5,2.8-5.8,5.2c-3.9,7.2-4.7,14.6-1.2,22.2
		c1.3,2.8,2.9,5.5,4.8,7.9c1.2,1.6,2.7,2.9,4.5,3.9c0.8,0.5,1.7,0.9,2.5,1.4c0.3,2.3,0.6,4.4,0.8,6.7c-0.5-0.1-0.9-0.2-1.2-0.3
		c-3-1.4-6.2-1.9-9.5-1.5c-1.5,0.2-2.5-0.3-3.6-1.2C381.5,422.4,377.7,418,374.3,413.3z M393.8,370.9c0.1,0.2,0.2,0.4,0.3,0.6l0,0.1
		c-2.2,1.3-4.3,2.5-6.5,3.7c-0.8-1.3-3.1-7.9-4.3-12.2c1-1.8,2.5-3.3,4.1-4.7c2.6-2.2,5.7-3.7,9-4.5c1.9-0.5,3.9-0.5,5.9,0.2
		c1.5,0.5,2.6,1.3,3.5,3c-0.9-0.3-1.4-0.5-2-0.7c-5.3-1.7-10.8,1.8-11.3,7.4C392.2,366.3,392.4,368.7,393.8,370.9z M377.5,382.9
		c-0.7-4.3,1.4-13.2,3.8-15.9c1.3,3.6,2.5,7.1,3.7,10.5c-1.4,1.9-2.6,3.5-3.8,5.2C380.1,383,378.8,383.2,377.5,382.9z M542.4,311.9
		c-1.2,9.7-3.2,19.3-5.1,28.9c-0.9,4.3-2.4,8.3-3.7,12.5c-3.9,12.6-9.8,24.2-16.9,35.3c-2.5,3.8-4.9,7.7-7.4,11.5
		c-6.2,9.4-13.4,18.1-21.2,26.2c-5.9,6.2-12.2,11.9-19.2,16.8c-2.3,1.6-4.7,3.2-7.2,4.7c-8.1,5-16,10.5-24.8,14.3
		c-2.5,1.1-5,2.2-7.5,3.2c-11.7,4.6-23.6,8.5-35.9,11.2c-6.3,1.4-12.7,2.5-19.2,3c-3.4,0.2-6.8,0.1-10.1,0.1
		c-5.5-0.1-11-0.3-16.5-0.4c-6.3-0.2-12.5-0.8-18.7-1.5c-6.1-0.7-12.1-1.8-18-3.1c-8.6-1.9-16.8-4.9-24.8-8.3
		c-8.6-3.6-17-7.8-25.1-12.4c-4.7-2.6-9.2-5.5-13.6-8.6c-7.6-5.4-14.9-11.3-21.7-17.7c-8.2-7.8-15.6-16.4-21.8-25.9
		c-2.8-4.2-5.3-8.6-8-13c-0.3-0.4-0.4-0.9-0.5-1.4c3.2,2.1,6.6,3.5,10.1,4.8c2.4,0.9,4.9,1.6,7.3,2.5c3.9,1.4,7.7,2.9,11.5,4.4
		c2.2,0.9,3.5,1.8,4.8,3.4c-0.2,0.2-0.5,0.4-0.7,0.5c-4.3,2.7-6.6,6.6-7.4,11.5c-0.3,1.4-0.3,2.9-0.4,4.4c0,0.6,0.1,1.2,0.2,1.7
		c0.3,1,1.1,1.4,2.1,1c0.4-0.2,0.8-0.4,1.1-0.7c4.8-3.3,10.2-4.1,15.8-3.1c5.5,1,10,3.7,13.8,7.7c3.7,4,7.4,8,11.2,11.9
		c8.8,8.9,19.3,14.8,31.7,17c1.3,0.2,2.6,0.4,3.9,0.5c1.7,0.2,2.7-0.3,2.8-1.4c0.1-1.1-0.7-1.8-2.4-1.9c-3.4-0.2-6.7-1-9.9-2
		c-8.7-2.5-16.1-7.2-22.5-13.3c-2.9-2.7-5.5-5.7-8.2-8.6c-1.8-1.9-3.5-3.8-5.4-5.6c-4.6-4.5-10.2-7.2-16.6-7.9
		c-4.2-0.5-8.2,0.3-12.1,2c-0.6,0.3-1.2,0.5-1.8,0.7l-0.2-0.1c0-6.2,3.9-11.7,10.9-13c3.1-0.6,6.2-0.2,9.1,1
		c1.3,0.5,2.3,1.5,3.5,2.2c0.7,0.4,1.3,0.4,1.8-0.1c0.6-0.5,0.6-1.3,0.1-2c-0.3-0.3-0.6-0.7-0.9-0.9c-0.9-0.6-1.8-1.2-2.8-1.8
		c-0.4-0.3-0.9-0.4-1.4-0.7c-0.9-2.3-1.1-4.8-1.3-7.3c-0.3-6.8,0.8-13.2,4.5-19c0.9-1.4,1.9-2.7,3-3.8c4.7-4.7,10.5-7.5,17-8.6
		c3.3-0.6,6.7-0.9,10.1-0.9c4.3,0,8.7,0,13-0.1c4.2-0.1,8.4-0.6,12.1-2.9c0.2-0.1,0.4-0.1,0.8-0.2c0,0.5,0.1,0.9,0,1.3
		c-1.6,5.8-4.3,10.9-9.5,14.4c-0.8,0.6-1.7,1.2-2.6,1.8c-0.7-0.6-1.4-1.1-2-1.7c-3.2-2.9-7-4.6-10.8-6.3c-0.1-0.1-0.3-0.1-0.4-0.1
		c-0.9-0.2-1.6,0-1.9,0.6c-0.4,0.7-0.3,1.5,0.5,2.1c0.3,0.2,0.6,0.4,0.9,0.6c0.5,0.2,0.9,0.4,1.4,0.6c6.9,2.9,12.3,7.7,16.4,13.9
		c3,4.5,5.1,9.4,5.7,14.9c0.2,1.8,0.1,3.6-0.3,5.7c-0.4-0.5-0.7-0.8-0.9-1.1c-2.2-3.3-5.1-5.8-8.4-8c-2.2-1.4-4.4-3-6.5-4.6
		c-3.7-2.9-6.2-6.7-7.5-11.2c-0.2-0.7-0.4-1.4-0.7-2.1c-0.3-0.8-1.1-1.2-1.7-1.1c-0.8,0.1-1.3,0.9-1.3,1.8c0,0.5,0.2,1,0.3,1.5
		c1.1,4.5,3.4,8.3,6.5,11.6c0.3,0.3,0.5,0.5,0.7,0.8l0.1,0.2c-1.2,3.7-7.7,8-12.1,8c0.4-0.7,0.8-1.4,1.2-2.1
		c1.9-3.3,2.9-6.9,2.5-10.8c0-0.4-0.1-0.7-0.1-1.1c-1.5-7.2-8.3-9.1-13.4-5c-1.7,1.4-3.1,3.2-4,5.2c-1.1,2.3-1.7,4.7-1.9,7.2
		c-0.5,6.1,0.7,11.8,3.8,17.2c2.8,4.8,6.3,8.9,10.7,12.1c1.4,1,2.9,1.7,4.4,2.6c0.3,0.2,0.7,0.3,1,0.4c1.5,0.4,2.4-0.2,2.6-1.8
		c0.2-1.1,0.3-2.2,0.5-3.3c1.1-4.7,3.3-8.8,6.4-12.4c0.1-0.1,0.3-0.2,0.6-0.4c0.1,0.3,0.3,0.6,0.4,0.8c2.3,7.5,6.7,13.7,12.4,18.9
		c2,1.8,4.2,3.5,6.4,5c5.8,4.1,12.3,6.6,19.2,7.9c2.3,0.4,4.7,0.6,7,0.4c0.6-0.1,1.2,0,1.9,0c0.2,0.4,0.5,0.9,0.7,1.5
		c0.5,1,0.9,2,1.3,3c4.1,9.3,10.9,16.3,19.6,21.5c4.2,2.5,8.8,3.6,13.7,3.8c0.7,0,1.5,0,2.2-0.2c0.8-0.2,1.3-0.9,1.2-1.6
		c-0.1-0.7-0.5-1.2-1.2-1.4c-0.4-0.1-0.9-0.1-1.3-0.1c-7.8,0.1-14.2-3.3-19.8-8.3c-2.3-2.1-4.3-4.4-6.4-6.7c-1.7-1.9-3-4.2-4.1-6.5
		c-1.8-3.8-3.3-7.7-4.7-11.7c-2.2-6.5-5.7-12.3-10.6-17.1c-1.6-1.6-3.5-2.9-5.4-4.2c-1.7-1.2-3.6-1.9-5.7-2.2
		c-0.5-0.1-1-0.2-1.7-0.4c2.8-3.7,6-6.4,10.6-7c6.4-0.8,11.7,1.3,16.2,5.7c1.5,1.4,2.8,3,3.8,4.8c0.2,0.4,0.5,0.8,0.8,1
		c0.3,0.2,0.8,0.2,1.2,0.1c0.5-0.1,0.9-0.6,0.8-1.2c-0.2-0.8-0.4-1.6-0.8-2.2c-1.8-2.9-4.1-5.4-6.8-7.4c-2.9-2.2-6.2-3.7-9.9-4.1
		c-1.2-0.1-2.1-0.7-2.7-1.6c-0.7-1.1-1.5-2.2-2.1-3.4c-2.7-5.4-5.1-10.9-6.2-16.9c-1.1-6.3-1.5-12.5,0.2-18.8
		c0.9-3.4,2.4-6.5,4.8-9.1c2.3-2.6,5.1-4.4,8.7-4.9c3.7-0.5,7.1,0.4,9.7,3.1c3.5,3.5,4.7,7.7,3.3,12.5c-0.7,2.3-2.1,4.2-4.2,5.5
		c-3,1.9-7,0.5-8.3-2.6c-0.8-2.1,0-4.2,2.3-5.5c0.2,0.2,0.3,0.6,0.6,0.8c1,0.8,2,0.4,2.4-0.8c0.2-0.9-0.2-1.9-1-2.5
		c-0.8-0.5-1.8-0.7-2.7-0.4c-2.4,0.6-3.9,2.2-4.5,4.4c-0.7,2.4-1.2,4.8-1.5,7.3c-0.4,3.3,0.4,6.4,1.5,9.5c1.8,4.7,4.7,8.6,8.3,12.1
		c1.4,1.3,2.8,2.6,4.2,3.9c2.1,2.2,4.1,4.4,6,6.7c3.2,4,4.6,8.6,4.6,13.7c0,0.4,0,0.7,0,1.1c0,0.6,0.1,1.2,0.8,1.4
		c0.7,0.2,1.4,0.1,1.8-0.4c0.4-0.5,0.7-1.1,1-1.7c1.5-3.5,4-6.1,7.2-8.1c0.6-0.4,1.2-0.9,2.1-0.8c0,0.4,0,0.8,0,1.2
		c-0.5,4.6-1,9.2-0.5,13.9c0.5,4.6,1.6,9,3.7,13.1c3.2,6.3,8.2,10.9,14.3,14.3c4.9,2.8,10.2,4.5,15.8,5.3c2.1,0.3,4.3,0.2,6.4,0.1
		c1.9-0.1,2.5-1.6,1.3-3.1c-0.6-0.6-1.4-1.1-2.1-1.5c-3-1.6-6-3.1-8.9-4.8c-5.1-2.9-9.1-7-12.1-12c-0.3-0.4-0.4-0.9-0.6-1.3
		c0.2-0.1,0.4-0.3,0.5-0.3c3.2,0.2,6.3-0.4,9.4-1c5.3-0.9,9.9,0.8,13.9,4.2c0.4,0.4,0.7,0.9,1.1,1.4c1.2,1.5,2.4,3,3.6,4.5
		c0.4,0.5,1,0.9,1.6,1.1c0.6,0.3,1.2,0.1,1.6-0.4c0.4-0.5,0.4-1.1,0-1.7c-0.2-0.3-0.5-0.5-0.7-0.8c-0.8-0.9-1.7-1.9-2.5-2.8
		c-1.8-2.1-2.9-4.5-3.5-7.3c-0.5-2.4-0.8-4.8-0.7-7.2c0-0.6,0.1-1.2,0.2-1.8c0.1-0.6,0.3-1.1,0.6-1.9c0.4,0.6,0.7,1,1,1.4
		c1.4,2.4,2.6,4.9,4.1,7.3c3.6,5.7,8.7,9.5,15.3,11.2c5.4,1.4,10.8,1.2,16.1-0.6c6.3-2.1,11.8-5.5,16.6-10.1
		c1.9-1.8,3.6-3.7,5.5-5.5c3.6-3.5,7.7-6.1,12.7-7.2c0.6-0.1,1.3-0.3,1.9-0.6c1.4-0.7,1.5-2.3,0.2-3.2c-0.5-0.3-1.1-0.5-1.6-0.6
		c-1.8-0.4-3.6-0.7-5.4-1c-5.8-0.9-11.7-1.1-17.6-0.2c-4.7,0.7-9.3,1.8-13.3,4.5c-1.6,1.1-3,2.3-4.7,3.6c0.1-0.5,0-0.8,0.2-1.2
		c2-5.6,5.1-10.4,9.6-14.3c4.4-3.8,9.1-7.2,14.7-9.1c2.3-0.8,4.7-1.3,7-2c0.8-0.2,1.4,0,2.1,0.3c2.7,1.1,5.6,1.8,8.5,2.1
		c4.5,0.4,8.8-0.3,12.8-2.4c1-0.5,1.9-1.3,2.8-2.1c0.6-0.5,0.7-1.3,0.5-2c-0.2-0.8-1-1.2-1.7-0.7c-0.2,0.1-0.4,0.3-0.5,0.4
		c-2.4,2.3-5.4,3.2-8.6,3.6c-4.3,0.5-8.5-0.2-12.5-1.9c-4.1-1.7-7.2-4.7-9.8-8.3c-0.1-0.2-0.1-0.4-0.2-0.8c0.5,0,0.9,0,1.3,0
		c11.4,1.1,22.1-1.2,32-7c5.8-3.4,11.1-7.5,15.4-12.8c4.3-5.3,7.3-11.4,7.8-18.4c0.1-0.8,0-1.6-0.2-2.4c-0.2-0.8-0.9-1.2-1.7-0.9
		c-0.8,0.3-1.6,0.6-2.5,1c-2.9,1.3-5.8,2.5-8.9,3.1c-3.1,0.5-6.2,0.6-9.2-0.1c-2.1-0.5-4.3-1.1-6.4-1.8c-4.4-1.4-8.1-3.9-11.2-7.1
		c-4.8-4.9-6.3-10.6-4.7-17.2c1.5-6.5,5.4-10.9,11.2-13.9c4.6-2.4,12.5-2.5,17.7,3c4.5,4.7,6.2,10.4,6,16.7c-0.1,2.4-1.1,4.5-3.1,6
		c-3.2,2.3-6.6,3.9-10.5,4.3c-5,0.5-8.9-1.6-11.8-5.5c-1.7-2.2-2.2-4.8-2-7.5c0-0.7,0.2-1.5,0.5-2.1c1.9-5.2,10.5-9.3,16.2-3
		c2.4,2.7,2,6.8-1.1,8.9c-1.3,0.9-2.7,1-4.2,0.3c-2.5-1.1-2.9-4-0.8-5.8c0.3-0.3,0.7-0.5,1.1-0.8c0.5-0.4,0.6-1,0.3-1.6
		c-0.3-0.6-0.8-0.9-1.5-0.7c-0.4,0.1-0.9,0.2-1.2,0.5c-3.4,2.1-4.1,7-1.4,9.7c2.9,3,7.7,3.2,10.7,0.2c1.3-1.3,2.2-2.8,2.7-4.5
		c0.7-2.5,0.5-4.8-1-7c-3.7-5.4-9.5-6.7-14.3-5.1c-5,1.7-8.5,4.9-9.2,10.3c-0.6,4.9,1,9.2,4.7,12.5c4.7,4.3,10.2,5.6,16.3,3.8
		c5.1-1.5,9.4-4.2,12.9-8.1c5.4-5.9,9-12.7,10.5-20.5c0.2-1.1,0.5-2.3,0.8-3.5c1.2-0.4,2.4-0.7,3.6-1.1c0.8-0.3,1.5-0.6,2.2-1.1
		c0.6-0.4,0.8-1.2,0.5-1.8c-0.3-0.6-0.9-0.8-1.5-0.7c-0.7,0.1-1.4,0.4-2.1,0.6c-5.2,1.9-10.4,1.6-15.6,0.4c-0.2,0-0.4-0.2-0.6-0.3
		c1.1-3.1,2.2-6.2,3.3-9.4c2.4-7.3,3.5-14.9,3.4-22.6c0-1,0.2-1.8,0.8-2.6c1-1.4,1.9-3,2.8-4.5c0.3-0.5,0.5-1.1,0.7-1.6
		c0.1-0.6-0.1-1.2-0.7-1.5c-0.6-0.3-1.3-0.2-1.8,0.3c-0.2,0.3-0.4,0.6-0.6,0.9c-0.5,0.9-1,1.8-1.5,2.7c-1.7,3.2-4.1,5.5-7.3,7.2
		c-3.8,2-7.7,3.6-11.9,4.5c-0.2,0-0.4,0-0.9,0.1c0.3-0.6,0.5-1.1,0.7-1.6c2.1-3.9,3.9-7.9,4.8-12.3c1.2-5.9,1.5-12,0.9-18
		c-0.6-6.3-2.4-12.3-4.2-18.2c-0.8-2.6-1.6-5.2-2.4-7.8c-2.6-8.5-6.9-16.2-11.8-23.6c-3-4.5-6.1-8.8-9.8-12.8
		c-9.4-10.1-20.3-18.5-32.3-25.5c-10.3-6-21.4-10-32.9-12.9c-6.1-1.6-12.2-2.8-18.3-3.8c-3.5-0.6-7.1-1.3-10.7-1.2
		c-1.6,0-3.2-0.3-4.8-0.4c-7.9-0.8-15.9-0.8-23.8-0.7c-6.3,0.1-12.6,0.9-18.9,1.8c-15,2.2-29.4,6.3-43.4,12.2
		c-6.9,2.9-13.5,6.6-19.7,10.8c-1.8,1.2-3.6,2.5-5.4,3.8c-4.8,3.3-9.2,7-13.5,11c-8.8,8.1-16.7,17-23.7,26.6
		c-7.7,10.6-13.8,22.1-18,34.5c-3.4,9.7-6.2,19.6-8.6,29.6c-0.6,2.4-0.8,4.9-1.2,7.4c-0.1,0.8-0.3,1.6-0.4,2.4
		c-1.7,9.7-2.6,19.6-1.7,29.4c1.2,13.3,3.3,26.6,7.4,39.4c0.5,1.5,1,3,1.6,4.6c-0.6,0.6-1.5,0.6-2.2,0.9c-6.7,2.9-11.2,7.7-12.6,15
		c-0.3,1.5-0.4,3.1-0.6,4.6c-0.1,1.1-0.2,2.3-0.3,4c-0.5-1-0.8-1.5-1-2c-3.1-7-6.2-14-8.3-21.3c-1-3.5-1.8-7.1-2.5-10.7
		c-1.1-5.9-1.9-11.9-2.9-17.8c-1.5-9.2-1.9-18.4-1.5-27.7c0.3-5.9,0.7-11.9,1.2-17.8c1-10.3,2.6-20.6,5.7-30.5
		c2.5-7.9,5.2-15.6,8.6-23.1c3.4-7.5,7.4-14.7,11.9-21.6c2.1-3.3,4.6-6.5,7-9.7c4.5-6.1,9-12.2,14-17.9c4.4-5,9.1-9.8,14.1-14.3
		c2.6-2.3,5.6-4.3,8.4-6.4c6.9-5.1,14.1-9.8,21.6-14.1c2.7-1.6,5.5-3.1,8.4-4.4c8.2-3.7,16.5-7.4,25.1-10.3c9.4-3.2,19-5.7,28.8-7.3
		c2.8-0.5,5.7-0.6,8.6-0.9c9.1-0.7,18.2-0.9,27.3-0.4c6.7,0.4,13.3,1.2,20,1.8c2,0.2,4,0.3,5.9,0.5c8.7,0.8,17.1,2.6,25.4,5.4
		c9.1,3,18.1,6.2,26.6,10.6c0.7,0.4,1.5,0.7,2.2,1.1c5.8,3.3,11.6,6.6,17.3,10.1c2.8,1.7,5.3,3.7,7.9,5.6
		c10.8,8.1,21,16.8,30.5,26.4c7.4,7.5,13.8,15.9,19,25.1c1.7,3.1,3.2,6.3,4.8,9.4c1.2,2.3,2.4,4.6,3.5,6.9c2,3.8,3.9,7.6,5.2,11.7
		c2,6.2,4,12.3,5.7,18.5c1.7,6.4,3.1,12.9,4.5,19.3c1.9,8.4,2.8,17,3.1,25.6c0.1,2.3,0.3,4.5,0.4,6.8
		C543.6,301.9,543,306.9,542.4,311.9z"/>
	<path d="M221,277.6c-0.4-0.4-0.9-0.5-1.4-0.3c-0.5,0.2-0.9,0.8-0.7,1.4c0.1,0.5,0.4,1,0.6,1.4c1.9,3.9,3.8,7.8,5.6,11.7
		c0.3,0.5,0.4,1.1,0.6,1.6c-0.9,2-1.8,3.9-2.6,5.9c-0.8,2-1.6,4.1-2.4,6.2c-0.1,0.2-0.3,0.2-0.6,0.4c-2-4.3-3.8-8.5-5.9-12.7
		c-2-4.1-4-8.3-5.6-12.7c1.2-0.2,2.2-0.3,3.2-0.5c0.9-0.2,1.4-0.8,1.4-1.4c-0.1-0.8-0.7-1.2-1.8-1.2c-0.4,0-0.7,0-1.1,0.1
		c-1.5,0.1-2.9,0.3-4.4,0.5c-1.2,0.1-2.3,0.3-3.5,0.4c-1.7,0.2-2.5,0.8-2.4,1.8c0.1,1.1,1,1.5,2.6,1.2c0.9-0.1,1.9-0.2,2.9-0.4
		c0.3,0.6,0.5,1.2,0.7,1.7c2,5.2,4.3,10.1,6.7,15.1c0.4,0.9,0.8,1.9,1.2,2.8c1.4,3.1,2.9,6.1,4.3,9.2c0.2,0.3,0.3,0.7,0.5,1
		c1,1.4,2.5,1.3,3.2-0.4c0.4-1,0.7-2.1,1-3.1c1-3.4,2.3-6.7,4-10.3c0.4,0.9,0.7,1.4,0.9,1.9c1.5,3.6,3,7.2,4.5,10.8
		c0.3,0.6,0.5,1.2,0.9,1.8c0.6,0.9,1.4,0.9,2.3,0.4c0.9-0.6,1.2-1.4,1.5-2.4c2.6-7.6,5.3-15.3,7.9-22.9c0.8-2.3,1.7-4.5,2.6-6.8
		c1.3-0.1,2.4-0.1,3.6-0.3c1.2-0.2,1.8-0.8,1.8-1.6c0-0.9-0.8-1.3-2.2-1.2c-2.5,0.1-5,0.3-7.5,0.4c-1,0-2.1,0-3.1,0.1
		c-1,0.1-1.5,0.7-1.5,1.5c0,0.9,0.6,1.4,1.6,1.5c0.5,0,1-0.1,1.5,0c0.8,0,1.6-0.3,2.5,0.2c-3.3,8.4-6.4,16.8-9.1,25.3
		c-0.1,0.3-0.3,0.6-0.6,1.2c-2-4.8-4-9.3-5.9-13.7c0.8-2.7,0.6-2.9-1.8-3.5c-0.3-0.5-0.6-1.1-0.9-1.7c-1.5-2.9-2.9-5.8-4.4-8.6
		C221.8,278.7,221.5,278.1,221,277.6z"/>
	<path d="M341.6,177.5c2.9-0.4,5.8-0.7,8.7-1.1c0.4,0,0.7-0.1,1.1-0.2c0.6-0.2,1-0.7,0.9-1.4c0-0.6-0.5-1.1-1.2-1.1
		c-0.7-0.1-1.3,0-2,0c-0.7,0-1.4,0-2.4,0c-0.1-1.5-0.2-2.9-0.2-4.3c-0.1-3.5-0.2-6.9-0.3-10.4c-0.1-2.3-0.2-4.6-0.2-6.8
		c0-0.4-0.2-0.9,0.5-1.1c1.4,1.6,2.9,3.1,4.2,4.8c4.4,5.6,8.7,11.3,13,17c0.8,1.1,1.7,2.2,2.6,3.3c0.5,0.6,1.2,0.9,2,0.6
		c0.7-0.3,1.2-0.8,1.3-1.7c0-0.5,0-1,0-1.5c-0.2-8.5-0.4-17.1-0.6-25.6c0-0.7,0-1.4,0.1-2.3c0.5,0,0.8-0.1,1.2-0.1
		c0.7,0,1.3,0.1,2,0.1c1,0,1.6-0.6,1.7-1.4c0-0.7-0.5-1.3-1.4-1.5c-0.2,0-0.4-0.1-0.7-0.1c-3.5,0-7,0-10.6,0l-0.2,0
		c-0.6,0.1-0.9,0.5-1,1c-0.1,0.6,0.1,1.1,0.6,1.3c0.5,0.2,1.1,0.4,1.7,0.4c1.2,0.1,2.3,0.1,3.6,0.1c0.1,8.4,0.3,16.7,0.4,25.3
		c-0.5-0.5-0.7-0.6-0.8-0.9c-3.2-4.2-6.5-8.3-9.7-12.6c-1.9-2.6-4-5.1-6.2-7.4c-2.2-2.4-4.4-4.8-6.5-7.2c-0.3-0.4-0.7-0.8-1.1-1.1
		c-0.6-0.5-1.4-0.4-1.8,0c-0.5,0.5-0.5,1.2-0.1,1.8c0.2,0.3,0.5,0.6,0.7,0.8c0.4,0.5,0.9,1,1.3,1.5c0.7,0.7,0.9,1.4,0.9,2.4
		c0.2,8.5,0.4,17,0.6,25.8c-1,0.2-1.8,0.3-2.6,0.4c-1.4,0.2-2,0.8-1.9,1.7C339.2,177.2,340.1,177.7,341.6,177.5z"/>
	<path d="M348.1,286.9c-2.3,3.3-2.8,6.8-0.8,10.3c1.9,3.5,5.2,4.8,8.7,5c3.9-0.1,6.6-1.7,8.2-4.9c1-2,1.3-4.2,0.9-6.4
		c-0.8-4-3.1-6.6-7-7.7C354.5,282.2,350.5,283.6,348.1,286.9z"/>
	<path d="M224.5,555.8c-1.2,0.1-2.5,0.2-3.7,0.3c-1.7,0.2-3.5,0-5.2-0.6c-2.2-0.7-4-1.8-5.8-3.2c-0.2-0.2-0.3-0.3-0.6-0.5
		c-0.8-0.3-1.1-0.3-1.6,0.3c-0.8,1-1.7,1.8-2.9,2.4c-2.2,1.1-3.9,2.7-5.2,4.8c-1,1.6-1.6,3.4-1.7,5.3c0,1.7,0.3,3.4,1.1,4.9
		c0.9,1.9,2.4,3.2,4.6,2.9c0.3,0,0.6,0.1,0.9,0c1.7-0.2,3.2-0.8,4.2-2.4c0.6-0.9,0.8-1.8,0.9-2.8c0.2-1.1-0.3-2.2-1.5-2.5
		c-1.8-0.5-3.3-0.2-4.3,1.6c-0.1,0.2-0.2,0.3-0.3,0.6c-1.6-1.2-2.6-2.6-2-4.7c0.2-1,0.6-1.8,1.4-2.4c1.7-1.5,3.6-2.4,5.9-2.4
		c0.7,0,1.4,0.1,1.9,0.2c2.3,0.6,4.2,1.8,5.5,3.7c0.7,1.1,1.1,2.4,1.5,3.6c0.3,1.7,0.8,3.4,0.8,5.2c0.1,1.9,0,3.9-0.6,5.8
		c-0.7,2.6-2,4.8-4,6.7c-1.5,1.4-3.2,2.4-5.1,2.7c-2.7,0.6-5.5,0.2-8.1-0.5c-3.4-1-6.5-2.6-9.3-4.9c-3.4-2.8-6-6.4-7.9-10.4
		c-0.6-1.4-1.1-2.7-1.6-4.2c-0.6-1.8-1.1-3.7-1.5-5.7c-0.3-1.7-0.5-3.5-0.8-5.3c-0.1-0.9,0-1.7,0.2-2.6c0.3-0.9,0.6-1.9,0.9-2.8
		c0.1-0.6,0.2-1.3-0.1-1.8c-0.2-0.5-0.5-1-0.7-1.5c-0.2-0.7-0.6-1.5-0.6-2.3c0.1-1.8,0.3-3.6,0.5-5.4c0-0.7,0.1-1.4,0.2-2
		c0.1-1.2,0.3-2.4,0.6-3.6c0.1-1.1,0.2-2.3,0.5-3.4c0.2-2,0.8-4.2,1.4-6.2c0.8-2.8,1.9-5.6,3.4-8.2c1.2-2.4,2.8-4.4,5-6.1
		c1.8-1.5,4-2.4,6.4-2.7c1.5-0.3,3.1-0.3,4.5-0.1c1.8,0.2,3.6,0.7,5.2,1.6c2.8,1.5,4.9,3.6,6.7,6.1c0.3,0.5,0.3,0.8-0.1,1.1
		c-0.1,0.1-0.2,0.2-0.5,0.3c-0.7,0.6-1.4,1.1-2,1.7c-1.7,1.4-3.4,2.8-4.6,4.7c-1.1,1.9-2.2,4-2.4,6.2c-0.2,1.4-0.1,2.6,0.2,4
		c0.3,1.2,0.8,2.5,1.5,3.6c1.2,1.9,2.9,3.2,5.5,2.9c0.1,0,0.3,0,0.6,0c1.5-0.2,2.8-0.8,4-1.8c1.6-1.4,1.9-3.2,1.8-5.2
		c0-1.1-0.7-1.9-1.9-2.2c-0.8-0.1-1.6-0.1-2.4,0.2c-1,0.5-1.6,1.4-1.8,2.4c-0.2,0.7-0.6,0.9-1.4,0.5c-0.7-0.5-1.4-0.9-1.9-1.6
		c-1.2-1.7-1.5-3.7-0.3-5.7c1-1.9,2.5-3.5,4.3-4.9c2.9-2.3,6.2-3.7,9.8-5c1.2-0.5,2.5-0.9,3.6-1.4v-0.1c-0.1-0.1-0.3-0.2-0.5-0.2
		c-0.6-0.2-1.1-0.5-1.7-0.8c-3.3-1.6-6.4-3.5-9.4-5.6c-2.7-1.8-5.8-2.7-9.1-3.2c-1.6-0.2-3.2-0.2-4.8-0.2c-2.7-0.1-5.2,0.5-7.7,1.5
		c-4,1.7-7.2,4.3-9.8,7.7c-1.8,2.3-3.3,4.8-4.4,7.4c-0.9,1.9-1.7,3.9-2.4,5.9c-0.7,1.6-1.1,3.4-1.5,5.1c-0.5,1.7-0.8,3.5-1.1,5.2
		c-0.2,1.7-0.3,3.3-0.5,5c-0.1,0.7-0.1,1.5-0.2,2.2c0,0.2,0,0.5-0.1,0.7c-0.3,1.2-0.8,2.4-1.7,3.4c-0.3,0.5-0.3,0.7,0,1.1
		c0.1,0.3,0.3,0.6,0.6,0.8c0.7,0.8,1.1,1.7,1.2,2.6c0.2,1.4,0.3,2.8,0.5,4.2c0.1,1.5,0.3,2.9,0.6,4.3c0.5,2.4,0.9,4.7,1.7,6.9
		c0.9,3.1,2.2,5.9,3.8,8.6c1.9,3.2,4.2,6,6.9,8.4c1.9,1.6,4.1,2.7,6.4,3.9c3.4,1.7,7,2.5,10.8,2.5c1.6,0,3.2-0.2,4.8-0.3
		c1.4-0.1,2.7-0.5,4.1-0.9c1.8-0.6,3.6-1.1,5.5-1.7c1.7-0.5,3.4-0.5,5.1,0.2c0.3,0.2,0.7,0.3,1,0.5c1,0.3,2.2-0.2,2.5-1.2
		c0.2-0.8,0.3-1.6,0-2.4c-1-2.6-1.6-5.4-1.6-8.3c-0.1-4-0.1-8.1,0.5-12c0.2-1.6,0.5-3.2,0.8-4.8c0.1-0.9,0.5-1.7,0.6-2.6
		C226.1,556.1,225.5,555.6,224.5,555.8z"/>
	<path d="M259.8,542.4c-0.2-0.9-0.3-1.7-0.6-2.6c-0.3-1.1-0.8-2.3-1.2-3.5c-0.6-1.4-1.1-2.6-1.9-3.9c-1.1-2-2.6-3.7-4.6-5.1
		c-1.9-1.4-4.1-2.3-6.7-2.2c-1.1-0.1-2.4,0.2-3.6,0.6c-1.5,0.6-2.8,1.2-4,2.3c-1,0.8-2.1,1.8-2.8,2.8c-1,1.4-1.9,3-2.7,4.5
		c-0.7,1.5-1.2,3.1-1.7,4.7c-0.5,1.5-0.8,3-0.9,4.4c-0.1,0.3-0.1,0.6-0.1,0.9c-0.1,0.8-0.1,1.7-0.2,2.5c0,2.4,0.1,4.7,0.5,6.9
		c0.2,1.4,0.3,2.6,0.7,3.9c0.2,1,0.6,2,0.9,3.1c0.7,1.8,1.5,3.5,2.6,5.2c1.2,1.8,2.7,3.4,4.6,4.7c1.9,1.1,3.9,1.7,6,1.7
		c0.9,0,1.8,0,2.7-0.2c0.6-0.1,1-0.1,1.6-0.3c1.6-0.6,3.1-1.4,4.3-2.5c1-0.9,1.8-1.9,2.6-3.1c1.1-1.6,2-3.4,2.8-5.3
		c0.3-0.9,0.7-1.8,0.9-2.7c0.3-1,0.6-2,0.8-3.1c0.1-0.7,0.2-1.4,0.3-2c0.1-0.9,0.2-1.9,0.3-2.8c0-1.2,0-2.5,0-3.6
		c0-0.9-0.1-1.8-0.2-2.7C260,544,259.9,543.2,259.8,542.4z M254.5,554.6c-0.1,1.1-0.2,2.3-0.3,3.4c-0.1,0.8-0.2,1.6-0.3,2.4
		c-0.3,1.9-0.8,3.7-1.6,5.4c-0.7,1.5-1.5,2.8-2.7,3.9c-0.9,0.8-1.9,1.3-3.2,1.5c-1,0.2-2,0.3-3.1,0.1c-1.5-0.2-2.7-0.8-4-1.8
		c-0.9-0.9-1.7-1.9-2.3-3.1c-0.6-1.2-1-2.6-1.4-4c-0.2-1.1-0.5-2.3-0.7-3.4c-0.2-1.4-0.3-2.8-0.5-4.3c-0.1-2.3-0.2-4.5-0.2-6.7
		c0.1-1.4,0.1-2.6,0.2-3.9c0-0.3,0-0.8,0.1-1.1c0-0.8,0.1-1.6,0.2-2.4c0.2-0.9,0.3-1.9,0.6-2.9c0,0,0,0,0.1-0.1
		c0,0.6,0.1,1.1,0.2,1.7c0.2,1.2,0.9,2.5,1.8,3.5c0.6,0.7,1.1,1.2,1.9,1.7c0.9,0.5,1.9,0.8,3,0.6c0.7-0.2,1.2-0.6,1.8-0.9
		c0.8-0.6,1.4-1.2,1.7-2.2c0.3-0.6,0.3-1.2,0.3-1.9c-0.1-0.6-0.2-1-0.3-1.6c-0.5-1.4-1.6-1.7-2.8-1.3c-0.5,0.1-0.9,0.5-1.2,0.9
		c-0.5,0.6-0.6,1.1-0.6,1.8c0,0.1,0,0.2,0,0.5c-0.2-0.1-0.5-0.1-0.7-0.2c-0.9-0.2-1.7-0.7-2.3-1.5c-0.3-0.5-0.6-1-0.7-1.6
		c-0.2-1.2,0-2.3,0.3-3.4c0.1-0.7,0.5-1.4,0.7-1.9c0.3-0.7,0.8-1.1,1.3-1.6c0.7-0.6,1.2-1.1,2-1.6c0.6-0.2,1.1-0.5,1.8-0.6
		c0.7-0.2,1.4-0.3,2.2-0.3c0.5,0,1,0,1.5,0.1c0.6,0.1,1.1,0.3,1.6,0.5c0.5,0.2,0.8,0.6,1.1,0.9c1,1.1,1.8,2.4,2.4,3.9
		c0.5,1.4,0.9,2.6,1.1,4c0.2,0.9,0.3,1.7,0.5,2.5c0.3,1.8,0.3,3.6,0.5,5.4c0.1,1.5,0.1,3.1,0.1,4.7S254.6,552.9,254.5,554.6z"/>
	<path d="M390.6,591.3c-0.5-0.6-1-1.1-1.6-1.6c-1.2-1.1-2.5-2-4-2.7c-1-0.5-1.9-0.6-2.9-0.2c-0.9,0.2-1.6,1.2-1.6,2.6
		c0.1,0.6,0.5,1,1,1c0.2,0.1,0.6,0.1,0.9,0.1c1.4,0,2.7,0.2,4,0.8c1.4,0.7,2.3,1.6,2.8,3.1c0.3,1,0.3,1.9,0.2,3
		c-0.1,2-1.4,3.3-2.9,3.9c-1.5,0.6-3.1,0.7-4.5,0.9c-1.1,0.1-2.4,0-3.5-0.2c-1.1-0.1-2.3-0.5-3.4-0.9c-1.7-0.6-3.2-1.5-4.8-2.4
		c-4.1-2.3-8.1-5.1-11.8-7.9c-1.6-1.2-2.9-2.7-4.8-3.6c-1.2-0.7-2.4-1.7-3.4-2.7c-0.9-0.7-1.6-1.6-2.2-2.5c-1-1.7-1.6-3.4-2.1-5.2
		c-0.2-0.7-0.5-1.2-0.5-1.8c-0.1-2.3-0.1-4.4,0-6.7c0-3.2-0.2-6.2,0.1-9.4c0-0.6-0.1-1.1-0.1-1.7c0-2.3,0-4.5-0.1-6.7
		c0-0.2,0-0.6,0.1-0.8c0.2-1,0.6-2.2,0.8-3.2c0.1-0.2,0.2-0.5,0.3-0.8c1.2,0.7,2.3,1.4,3.2,2.3c2,1.9,3.4,4.4,4.3,7
		c0.1,0.5,0.2,0.9,0.5,1.4c0.1,0.2,0.2,0.3,0.6,0.2c0.1-1,0.2-1.9,0.2-3c0.1-1.6-0.2-3.2-0.6-4.8c-0.1-1.1-0.5-2.3-0.6-3.4
		c-0.1-1.1-0.1-2.2,0.6-3.2c0.6-0.7,0.9-1.6,0.9-2.6c-0.1-1-0.8-1.9-1.7-2.2c-0.1,0.2-0.2,0.5-0.5,0.7c-1.2,1.9-3.1,2.8-5.3,2.8
		c-0.5,0-1-0.1-1.5-0.1c-0.5,0-0.7-0.2-0.8-0.6c-0.2-0.8-0.3-1.7-0.5-2.5c-0.1-0.9,0-1.9-0.1-2.8c0-2.5-0.1-5.1-0.2-7.7
		c0-1-0.1-2-0.1-3.2c0-3-0.1-5.9,0-8.9c0-4.3,0.1-8.5,0.2-12.8v-0.1c0-0.7,0.1-0.8,0.7-0.7c1.8,0.1,3.6,0.2,5.5,0.5
		c1.1,0,2.4,0.1,3.5,0.1c2,0.2,4.1,0.5,6.1,0.7c1.9,0.2,3.9,0.5,5.8,0.7c1.8,0.2,3.8,0.5,5.6,0.7c1.8,0.2,3.6,0.5,5.5,0.6
		c0.9,0.1,1.8,0.2,2.7,0.3c1.5,0.2,3.1,0.3,4.5,0.6c0.3,0,0.8,0.1,1.2,0.2c1.1,0.2,2.3,0.3,3.5,0.6c1.4,0.2,2.8,0.5,4.2,0.7
		c1.4,0.2,2.7,0.5,4.2,0.7c1.5,0.2,2.9,0.5,4.4,0.6c1.5,0.2,2.9,0.5,4.5,0.6c1,0.1,1.9,0.2,3,0.5c0.2,0,0.6,0.1,0.7,0.2
		c0.3,0.2,0.7,0.2,1,0.1c0.7-0.3,1.5-0.7,2.2-1c2.3-1,4.5-2.2,6.8-3.2c0.3-0.1,0.7-0.2,1-0.5c1-0.8,2-1.6,3.1-2.4
		c1-0.8,1.6-1.9,1.9-3.2c0.2-1.1,0.1-2.3-0.5-3.3c-0.9-2-3.2-2.6-4.8-1c-1,1-1.2,2-0.1,3.3c0.5,0.5,0.6,0.5,1,0.1
		c0.6-0.3,1.1-0.6,1.7-0.9c0.6-0.2,0.7-0.1,1,0.3c0.2,0.5,0.2,1,0,1.5c-0.2,0.2-0.5,0.5-0.7,0.7c-1.5,1.5-3.3,2.5-5.2,3.1
		c-1.4,0.6-2.7,0.9-4.2,1.1c-2.5,0.3-5.1,0.6-7.6,0.8c-0.6,0.1-1,0.1-1.5,0.1c-0.7,0-1.4-0.1-2.1-0.1c-1.8-0.1-3.7-0.2-5.6-0.3
		c-3-0.2-5.9-0.6-8.7-0.9c-2.5-0.2-4.9-0.6-7.4-0.9c-0.6-0.1-1-0.1-1.6-0.2c-1.1-0.2-2.4-0.5-3.5-0.6c-2.2-0.2-4.2-0.3-6.4-0.6
		c-1.1-0.1-2.4-0.2-3.6-0.3c-1.1-0.1-2.3-0.3-3.4-0.6c-1.5-0.1-2.8-0.2-4.2-0.5c-1.1-0.1-2.3-0.2-3.4-0.3c-1.9-0.2-4-0.5-6-0.5
		c-2.7-0.2-5.4-0.3-8.2-0.7c-1.1-0.2-2.3-0.2-3.4-0.3c-1.1-0.1-2.3-0.1-3.3-0.2c-1.7-0.1-3.4-0.2-5-0.3c-1.5,0-2.8,0-4.3-0.1
		c-1,0-2.2-0.1-3.2-0.1c-1,0-2,0.1-3.1,0.1c-1.4,0.1-2.7,0.2-4.1,0.3c-1.4,0.1-2.7,0.5-4.1,0.6c-1.8,0.3-3.6,0.6-5.5,1.1
		c-2.5,0.7-4.9,1.5-7.2,2.7c-1.6,0.8-3.1,1.6-4.4,2.5c-2.3,1.5-4.2,3.4-6,5.3c-1.2,1.2-2.3,2.6-2.9,4.3c-0.7,1.7-1.4,3.3-1.7,5.1
		c-0.5,2.4-0.9,4.7-0.5,7c0.2,1.5,0.6,3,1.1,4.3c1,2.4,2.6,4.5,4.6,6.2c1.8,1.7,4,3.1,6.2,4.1c1,0.5,2,1,3.2,1.2
		c1.5,0.3,3.1,0.5,4.5,0.6c2.4,0.2,4.5-0.1,6.8-0.8c3.7-1.1,7-3.1,9.6-5.9c2.3-2.5,3.4-5.3,3.5-8.6c0-1.7-0.1-3.4-0.7-5.1
		c-0.7-2.2-1.9-4-3.8-5.4c-1.8-1.6-3.9-2.4-6.3-2.4c-1.5,0-3,0.3-4.4,0.7c-1.6,0.5-2.8,1.4-3.9,2.6c-1.6,2.2-1.7,4.1-0.1,6.2
		c1.4,1.8,3.7,1.9,5.1,0.9c1.1-0.8,1.6-1.7,1.2-2.9c-0.1-0.5-0.1-1-0.1-1.5c0-0.6,0.3-1.1,0.9-1.4c0.6-0.2,1.3-0.3,1.8-0.2
		c0.5,0,0.9,0.1,1.4,0.1c1.2,0.2,2.4,0.6,3.3,1.4c1.6,1.1,2.3,2.8,2.6,4.7c0.3,1.6,0.2,3.1-0.2,4.7c-0.7,1.9-1.6,3.7-3.3,5
		c-2.8,2.4-6,4.1-9.9,4.7c-1.8,0.2-3.5,0-5.2-0.3c-1.8-0.6-3.5-1.5-5.1-2.5c-3.7-2.5-6.2-5.9-7.4-10.2c-0.7-2.6-0.7-5.2,0-7.7
		c0.6-2,1.1-3.9,2.3-5.7c1.1-1.9,2.3-3.9,4.1-5.3c0.8-0.6,1.5-1.2,2.3-1.9c1-0.8,2.2-1.5,3.4-1.9c1.5-0.6,2.9-1.4,4.4-2
		c1.5-0.6,2.9-1.1,4.5-1.2c1.1-0.1,2.2-0.1,3.2-0.3c2.7-0.3,5.4-0.5,8.2-0.3c0.7,0,1.2-0.1,1.9-0.1c1.8,0,3.6-0.1,5.3,0
		c2.6,0,5.2,0.2,7.8,0.3c0.9,0.1,1.8,0.1,2.8,0.2c0.1,1.6,0.2,3.1,0.3,4.4c0,1.6,0,3.1,0,4.7c0.1,2.6,0.1,5.2,0.1,7.8
		c-0.1,3.9-0.2,7.7-0.3,11.6c0,2.8,0,5.6,0,8.4c0,1.1-0.2,2.3-0.7,3.3c-0.1,0.5-0.5,0.9-0.9,1.1c-0.2,0.2-0.5,0.5-0.7,0.6
		c-0.2,0.3-0.3,0.7,0,0.9c0.7,0.8,1.1,1.7,1.5,2.7c0.3,1.1,0.8,2.2,0.8,3.4c0,3.6,0.1,7.4,0.1,11c0,1-0.1,2-0.1,3.2
		c0,1.8,0.1,3.6,0.1,5.6c0,1.6-0.1,3.3-0.1,4.9c0,0.6,0,1-0.1,1.6c0,0.5,0,1-0.2,1.5c-0.6,1.6-1.5,3.1-2.6,4.4
		c-1.2,1.5-2.7,2.6-4.6,3.2c-1.9,0.6-3.9,0.3-5.7-0.6c-0.2-0.2-0.6-0.3-0.8-0.6c-1.1-1-1.2-2.9-0.7-4.2c0.1-0.2,0.3-0.2,0.5-0.1
		c0.2,0.1,0.3,0.1,0.5,0.2c1.6,0.9,3.2,0.1,4-1c0.7-0.7,0.8-1.6,0.2-2.4c-0.8-1.2-1.9-2.2-3.4-2.5c-1.1-0.3-2.2-0.1-3.2,0.3
		c-2.3,0.9-3.5,2.3-3.4,4.9c0,1.8,0.6,3.5,1.6,5c2,2.8,4.9,4.1,8.2,4.5c1.5,0.1,3,0.1,4.3-0.2c1.1-0.3,2.3-0.7,3.3-1.2
		c0.8-0.5,1.5-1,2.2-1.5c0.5-0.2,0.8-0.5,1.3-0.2c1.1,0.2,2.3,0.6,3.3,0.9c4,1.1,7.5,3.1,10.9,5.4c2.9,2,5.8,4.1,8.6,6.2
		c3.1,2.2,6.1,4.3,9.5,5.9c1.5,0.7,2.9,1.1,4.5,1.5c2,0.3,4.2,0.2,6.2-0.2c1.6-0.5,3.1-1,4.4-1.9c1.6-1,2.8-2.4,3.5-4.3
		c0.5-1.2,0.7-2.5,0.5-4C392.2,593.4,391.6,592.3,390.6,591.3z"/>
	<path d="M379.8,570.9c-0.1,0-0.2,0.1-0.3,0.1c0,0.1,0.1,0.2,0.1,0.3c0.2,0.8,0.8,1.2,1.6,1.5c1,0.2,1.9,0.1,2.7-0.3
		c0.5-0.1,0.8-0.3,1.1-0.6c0.1,0.1,0.2,0.2,0.5,0.2c0.5,0.3,0.9,0.5,1.5,0.6c0.8,0.1,1.6,0.1,2.4-0.1c0.3-0.1,0.7-0.3,0.9-0.6
		c0.6-0.6,0.8-1.1,0.7-1.8c-0.1,0-0.1-0.1-0.2-0.1c-0.3,0-0.6-0.2-0.8-0.3c-1-0.7-1.7-1.6-2.4-2.6c-0.7-1.2-1.2-2.5-1.9-3.7
		c-0.8-1.5-1.5-3-2.3-4.4c-1-1.9-1.9-3.9-2.9-5.8c-1-2-2-4.1-3.1-6.1c-0.2-0.5-0.2-0.9-0.1-1.4c0.2-0.3,0.3-0.7,0.6-1
		c0.7-1.5,1.4-3,2.2-4.4c0.6-1.1,1.1-2.3,1.7-3.4c0.7-1.2,1.2-2.6,1.9-3.9c0.5-0.9,0.9-1.7,1.5-2.5c0.7-1.1,1.6-2,2.6-3
		c0.1-0.1,0.2-0.2,0.1-0.5c-0.2-0.7-0.8-1.2-1.6-1.4c-1.1-0.3-2.3-0.2-3.3,0.5c-0.1,0-0.1,0-0.2-0.1c-1-0.8-2.2-1-3.4-0.7
		c-0.5,0.1-0.9,0.3-1.2,0.8c0.1,0,0.1,0.1,0.1,0.1c1,0.3,1.8,1,2.4,1.8c0.5,0.8,0.9,1.5,0.8,2.5c-0.1,0.6-0.1,1.2-0.2,1.9
		c-0.1,0.5-0.2,0.9-0.3,1.4c-0.6,1.4-1.3,2.7-1.8,4c-0.7,1.6-1.5,3.2-2.2,4.8c-0.2,0.5-0.5,0.8-0.7,1.2c-0.1,0.2-0.2,0.2-0.3,0.1
		c-0.1-0.1-0.1-0.2-0.1-0.2c-0.5-0.9-0.9-1.8-1.2-2.6c-0.6-1.1-1.1-2.3-1.7-3.4c-0.7-1.3-1.4-2.6-1.9-4c-0.6-1.1-1.1-2.3-1.6-3.3
		c-0.1-0.1-0.1-0.2-0.1-0.3c0-0.3,0-0.7,0-1c0.1-0.8,0.5-1.5,1-1.9c0.2-0.2,0.5-0.3,0.7-0.5c-0.2-0.9-0.7-1.6-1.6-1.8
		c-1-0.2-1.9-0.1-2.8,0.3c-0.5,0.1-0.8,0.3-1.1,0.6c-0.3-0.3-0.9-0.6-1.4-0.7c-0.7-0.2-1.2-0.2-1.9-0.2c-0.7,0.1-1.2,0.3-1.7,0.7
		c-0.7,0.6-0.9,1.1-0.9,1.9c0.7,0.1,1.3,0.6,1.7,1c0.7,0.6,1.1,1.2,1.7,1.9c0.9,1.2,1.5,2.6,2.3,4c0.5,1,0.9,1.9,1.4,3
		c0.8,1.4,1.5,2.8,2.3,4.2c0.6,1.4,1.3,2.6,1.9,4c0.5,0.9,0.9,1.8,1.4,2.8c0.3,0.5,0.3,1,0,1.5c-0.1,0.2-0.1,0.5-0.2,0.6
		c-0.6,1.1-1.1,2.4-1.7,3.5c-0.7,1.5-1.5,3-2.2,4.3c-0.9,1.9-1.9,3.7-2.8,5.6c-0.7,1.1-1.2,2.3-2,3.4c-0.8,1.1-1.6,2.2-2.7,3
		c-0.1,0.1-0.1,0.2-0.1,0.3c0.2,0.7,0.6,1.1,1.2,1.4c0.8,0.3,1.7,0.3,2.6,0.1c0.3-0.1,0.7-0.2,1-0.6c0.1,0.1,0.1,0.1,0.2,0.1
		c0.9,0.8,2,1.1,3.3,0.9c0.6-0.1,1-0.5,1.4-0.9c-0.1-0.1-0.3-0.2-0.5-0.2c-1.5-0.7-2.2-1.8-2.4-3.3c-0.1-0.9,0.1-1.8,0.3-2.7
		c0.1-0.7,0.5-1.4,0.7-2.2c0.7-1.5,1.4-3,1.9-4.4c1-2.3,1.9-4.5,2.9-6.8c0.1-0.2,0.2-0.6,0.5-0.9c0.2,0.5,0.5,0.9,0.7,1.3
		c0.6,1.1,1.1,2.3,1.6,3.4c1,1.9,1.9,3.7,2.9,5.7c0.6,1.2,1.1,2.4,1.7,3.5c0.2,0.6,0.6,1.1,0.8,1.7c0.2,0.8,0.2,1.7,0,2.5
		C380.9,569.8,380.5,570.4,379.8,570.9z"/>
	<path d="M422.1,532.7c-0.5-1.1-1.1-2.3-1.9-3.2c-1.4-1.5-2.9-2.7-4.8-3.5c-1.2-0.7-2.6-1-4.1-1.2c-1.2-0.1-2.5-0.2-3.6-0.2
		c-1.1,0-2.2,0.1-3.2,0.1c-0.3,0-0.7,0.1-1,0.1c-0.7,0.1-1.2,0.2-1.9,0.3c-0.6,0.1-1.1,0.2-1.7,0.5c-0.7,0.1-1.4,0.3-1.9,0.6
		c-0.1,0-0.1,0-0.2,0c-0.6-0.5-1.2-0.6-1.9-0.7c-0.6-0.1-1.1,0-1.7,0.1c-0.9,0.3-1.5,0.9-1.7,1.9c0,0.2,0,0.2,0.2,0.3
		c0.3,0.1,0.7,0.2,1,0.5c0.7,0.3,1.1,1,1.5,1.7c0.1,0.1,0.2,0.2,0.2,0.3c0,0.2,0,0.6,0,0.8c0.1,1.8,0.1,3.6,0.1,5.3
		c0,8.6,0,17.3,0,25.9c0,1.4,0,2.8-0.1,4.3c0,0.6-0.1,1-0.5,1.6c-0.5,0.7-1.1,1.2-1.9,1.6c-0.2,0-0.5,0.1-0.6,0.1
		c0.1,1.3,1,2.2,2.3,2.3c0.9,0,1.9,0,2.7-0.5c0.5-0.3,0.8-0.2,1.2,0c0.7,0.6,1.6,0.8,2.5,0.8c0.3,0,0.6-0.1,0.8-0.1
		c0.6-0.2,1.1-0.5,1.6-1c-0.1,0-0.1,0-0.1-0.1c-0.1,0-0.1,0-0.2,0c-1-0.3-1.7-1.1-2.2-2.2c-0.5-1-0.6-2-0.6-3.2
		c-0.1-0.8-0.1-1.6-0.1-2.4c0-1.2,0-2.6,0-3.9c0-0.7,0-1.4,0-2.2c0-1.1,0-2.3,0-3.4c0.1-2.2,0-4.4,0.1-6.6c0-1.7,0-3.4,0-5
		c0-1.4,0-2.7,0.1-4.1c0-2.4,0-4.8,0-7.2c0-0.2,0-0.6,0-0.8c0-0.1,0-0.3,0.1-0.5c0.6-1.1,1.5-2,2.6-2.8c1.3-0.7,2.6-1.1,4-1
		c0.7,0,1.4,0,1.9,0.2c1,0.2,1.9,0.7,2.8,1.4c0.9,0.7,1.7,1.5,2.4,2.4c0.9,1.1,1.6,2.3,2.2,3.5c0.6,1.2,0.9,2.5,1.2,3.7
		c0.1,0.8,0.2,1.5,0.2,2.3c0.1,1.2,0.1,2.5-0.1,3.7c-0.2,0.9-0.6,1.8-1,2.7c-0.7,1.1-1.5,2-2.6,2.7c-1.5,1-3.2,1.5-5,1.6
		c-1.4,0.1-2.6-0.2-3.6-1.1c-1.1-0.9-2-1.9-2.7-3.3c-0.6-1.1-0.6-2.4,0.2-3.5c0.6-0.8,1.2-1.4,2-1.8c0.3-0.1,0.6-0.3,0.9-0.3
		c0.8-0.1,1.6,0.2,2.3,0.8c0.5,0.3,0.5,0.9,0.2,1.4c-0.1,0.2-0.2,0.5-0.5,0.7c-0.3,0.5-0.8,0.9-1.1,1.4c-0.6,0.8-0.3,1.8,0.6,2.2
		c0.2,0.1,0.6,0.1,0.8,0.2c0.7,0.2,1.2,0,1.7-0.5c0.6-0.5,1.1-1.1,1.5-1.8c0.7-1.3,0.6-2.8-0.5-3.9c-0.6-0.7-1.4-1.2-2.2-1.6
		c-0.7-0.3-1.5-0.5-2.3-0.5c-0.6,0-1.1,0.1-1.7,0.3c-1.1,0.3-2.2,1-2.8,2c-0.5,0.8-0.8,1.6-1,2.5c-0.1,1.1-0.1,2.2,0.2,3.1
		c0.3,1.2,1.1,2.3,2.2,3.1c1.2,1.1,2.7,1.8,4.4,2c1.1,0.2,2.2,0.2,3.2,0.1c1.5-0.1,2.8-0.3,4.1-0.9c1.5-0.7,2.7-1.6,3.7-2.6
		c0.9-1,1.7-2,2.4-3.2c0.6-1.1,1.1-2.2,1.4-3.3c0.3-0.9,0.5-1.8,0.6-2.8c0.1-1.2,0-2.5-0.2-3.7C422.7,534.5,422.5,533.6,422.1,532.7
		z"/>
	<path d="M450.3,557c-0.7-0.7-1.4-1.4-2.4-1.7c-0.6-0.1-1.2-0.1-1.8,0c-0.8,0.3-1.5,0.8-2,1.5c-0.3,0.5-0.7,0.9-0.7,1.6
		c-0.1,0.7,0,1.4,0.2,2c0.1,0.5,0.5,0.9,1,1c0.5,0.1,0.8,0,1.2-0.1c0.8-0.3,1.4-1,1.4-1.9c0-0.1,0-0.3,0-0.5c0.1,0,0.1,0,0.2,0
		c0.5,0,0.8,0.2,1.2,0.5c0.8,0.5,1.4,1.7,1,2.5c0,0.1,0,0.1,0,0.2c-0.1,0.6-0.3,1.2-0.7,1.8c-0.7,1.4-1.6,2.6-2.7,3.6
		c-1,0.9-2,1.6-3.3,1.8c-0.8,0.2-1.6,0.3-2.5,0.3c-0.8,0.1-1.6,0.2-2.4,0.2c-1.1,0-2.3,0-3.4-0.1c-1.1-0.2-1.5-0.9-1.6-1.7
		c-0.1-0.8-0.2-1.5-0.2-2.3c0.1-9.6,0.1-19.4,0.1-29.2c0-1.6,0-3.2,0-4.8c0-0.1,0-0.2,0-0.3c-0.1-0.5-0.1-1,0-1.5
		c0.1-0.8,0.3-1.5,0.8-2.2c0.5-0.7,1-1.2,1.9-1.5c0,0,0-0.1,0.1-0.1c-0.3-0.6-0.9-0.9-1.5-1c-1-0.2-2-0.1-2.9,0.3
		c-0.5,0.1-0.9,0.3-1.4,0.2c-0.2,0-0.6-0.1-0.8-0.1c-0.7-0.2-1.4-0.3-2-0.2c-1.2,0.1-2.3,0.8-2.5,2.3c0.1,0,0.1,0,0.2,0
		c0,0.1,0.1,0.1,0.1,0.1c0.9,0.2,1.6,0.8,2.2,1.5c0.3,0.6,0.6,1.1,0.6,1.7c0,0.5,0,0.8,0,1.1c0,10.4,0,20.8,0,31.2
		c0,1.5,0,3-0.1,4.4c0,0.6-0.2,1-0.8,1.4c-0.6,0.6-1.4,0.9-2.2,1.1c0,0.1,0,0.1,0,0.1c0.1,0.9,0.6,1.6,1.5,1.9
		c0.8,0.3,1.7,0.3,2.6,0.1c0.7-0.2,1.2-0.3,1.9-0.3c0.5,0.1,0.9,0.1,1.5,0.1c1.9-0.1,3.9-0.1,5.8-0.1c3.4,0,6.9,0,10.3,0
		c0.6,0,1.1,0.1,1.7,0.1c0.2,0,0.5,0.1,0.7,0.1c-0.1-1.5-0.8-2.6-1.9-3.5c0.2-0.2,0.3-0.3,0.5-0.5c0.1-0.2,0.2-0.3,0.3-0.5
		c1.1-1.5,1.8-3.2,2-5c0.1-0.8,0.2-1.6,0.1-2.4C451.7,559.3,451.3,558,450.3,557z"/>
	<path d="M484.4,542.4c-0.2-0.9-0.3-1.7-0.6-2.6c-0.3-1.1-0.8-2.3-1.2-3.5c-0.6-1.4-1.1-2.6-1.9-3.9c-1.1-2-2.6-3.7-4.6-5.1
		c-1.9-1.4-4.1-2.3-6.7-2.2c-1.1-0.1-2.4,0.2-3.6,0.6c-1.5,0.6-2.8,1.2-4,2.3c-1,0.8-2,1.8-2.8,2.8c-1,1.4-1.9,3-2.7,4.5
		c-0.7,1.5-1.2,3.1-1.7,4.7c-0.5,1.5-0.8,3-0.9,4.4c-0.1,0.3-0.1,0.6-0.1,0.9c-0.1,0.8-0.1,1.7-0.2,2.5c0,2.4,0.1,4.7,0.5,6.9
		c0.2,1.4,0.3,2.6,0.7,3.9c0.2,1,0.6,2,0.9,3.1c0.7,1.8,1.5,3.5,2.6,5.2c1.2,1.8,2.7,3.4,4.6,4.7c1.9,1.1,3.9,1.7,6,1.7
		c0.9,0,1.8,0,2.7-0.2c0.6-0.1,1-0.1,1.6-0.3c1.6-0.6,3.1-1.4,4.3-2.5c1-0.9,1.8-1.9,2.6-3.1c1.1-1.6,2-3.4,2.8-5.3
		c0.3-0.9,0.7-1.8,0.9-2.7c0.3-1,0.6-2,0.8-3.1c0.1-0.7,0.2-1.4,0.3-2c0.1-0.9,0.2-1.9,0.3-2.8c0-1.2,0-2.5,0-3.6
		c0-0.9-0.1-1.8-0.2-2.7C484.6,544,484.5,543.2,484.4,542.4z M479.1,554.6c-0.1,1.1-0.2,2.3-0.3,3.4c-0.1,0.8-0.2,1.6-0.3,2.4
		c-0.3,1.9-0.8,3.7-1.6,5.4c-0.7,1.5-1.5,2.8-2.7,3.9c-0.9,0.8-1.9,1.3-3.2,1.5c-1,0.2-2,0.3-3.1,0.1c-1.5-0.2-2.7-0.8-4-1.8
		c-0.9-0.9-1.7-1.9-2.3-3.1c-0.6-1.2-1-2.6-1.4-4c-0.2-1.1-0.5-2.3-0.7-3.4c-0.2-1.4-0.3-2.8-0.5-4.3c-0.1-2.3-0.2-4.5-0.2-6.7
		c0.1-1.4,0.1-2.6,0.2-3.9c0-0.3,0-0.8,0.1-1.1c0-0.8,0.1-1.6,0.2-2.4c0.2-0.9,0.3-1.9,0.6-2.9c0,0,0,0,0.1-0.1
		c0,0.6,0.1,1.1,0.2,1.7c0.2,1.2,0.9,2.5,1.8,3.5c0.6,0.7,1.1,1.2,1.9,1.7c0.9,0.5,1.9,0.8,3,0.6c0.7-0.2,1.2-0.6,1.8-0.9
		c0.8-0.6,1.4-1.2,1.7-2.2c0.3-0.6,0.3-1.2,0.3-1.9c-0.1-0.6-0.2-1-0.3-1.6c-0.5-1.4-1.6-1.7-2.8-1.3c-0.5,0.1-0.9,0.5-1.2,0.9
		c-0.5,0.6-0.6,1.1-0.6,1.8c0,0.1,0,0.2,0,0.5c-0.2-0.1-0.5-0.1-0.7-0.2c-0.9-0.2-1.7-0.7-2.3-1.5c-0.3-0.5-0.6-1-0.7-1.6
		c-0.2-1.2,0-2.3,0.3-3.4c0.1-0.7,0.5-1.4,0.7-1.9c0.3-0.7,0.8-1.1,1.3-1.6c0.7-0.6,1.2-1.1,2-1.6c0.6-0.2,1.1-0.5,1.8-0.6
		c0.7-0.2,1.4-0.3,2.2-0.3c0.5,0,1,0,1.5,0.1c0.6,0.1,1.1,0.3,1.6,0.5c0.5,0.2,0.8,0.6,1.1,0.9c1,1.1,1.8,2.4,2.4,3.9
		c0.5,1.4,0.9,2.6,1.1,4c0.2,0.9,0.3,1.7,0.5,2.5c0.3,1.8,0.3,3.6,0.5,5.4c0.1,1.5,0.1,3.1,0.1,4.7S479.2,552.9,479.1,554.6z"/>
	<path d="M515.4,572.7c-1.1-0.2-1.9-0.8-2.6-1.7c-0.6-0.8-1-1.7-1.4-2.6c-0.3-1-0.6-2.2-0.8-3.2c-0.3-1.2-0.5-2.5-0.7-3.7
		c-0.2-0.7-0.3-1.5-0.5-2.3c-0.3-1.1-0.6-2.3-0.8-3.4c-0.3-1.4-0.9-2.6-1.7-3.7c-0.7-0.9-1.4-1.7-2-2.5c-0.7-0.7-1.2-1.2-1.9-1.8
		c-0.2-0.1-0.5-0.2-0.6-0.3c0,0,0,0,0.1,0c0.5-0.2,0.9-0.5,1.4-0.8c1.2-0.6,2.4-1.3,3.5-1.9c2-1.1,3.6-2.6,4.8-4.7
		c0.5-0.8,0.8-1.8,1-2.7c0.1-0.8,0.1-1.7,0.1-2.5c-0.1-0.7-0.1-1.4-0.3-2c-0.5-1.5-1.2-2.8-2.4-4c-2-2.2-4.6-3.3-7.6-3.7
		c-0.7-0.1-1.4-0.2-2-0.3c-1.2-0.1-2.4,0-3.5,0.1c-1.1,0.1-2.2,0.2-3.2,0.6c-0.6,0.2-1.1,0.5-1.8,0.7c-0.2,0-0.5,0-0.7-0.1
		c-1.1-0.5-2.3-0.8-3.4-0.6c-0.8,0.1-1.5,0.5-1.8,1.3c-0.2,0.2-0.3,0.6-0.3,0.9c0.1,0.1,0.1,0.1,0.1,0.1c0.1,0,0.1,0,0.2,0
		c0.8,0.3,1.6,0.7,2.3,1.4c0.2,0.2,0.3,0.5,0.5,0.8c0.1,0.3,0.2,0.7,0.2,1.1c0.1,0.7,0.1,1.5,0.1,2.2c0,5.1,0,10.2,0,15.4
		c0,5.8,0,11.6,0,17.4c0,0.9-0.1,1.9-0.5,2.8c-0.2,0.7-0.6,1.2-1.2,1.7c-0.3,0.2-0.7,0.3-1,0.6v0.1c0.2,1.1,0.9,1.8,1.9,2
		c0.5,0,0.9,0,1.4,0c0.8-0.1,1.6-0.2,2.4-0.7c0.2,0.2,0.6,0.5,0.8,0.6c1.1,0.5,2.3,0.7,3.4,0.2c0.6-0.1,0.9-0.3,1.2-0.9
		c-0.2-0.1-0.5-0.1-0.7-0.2c-0.7-0.5-1.2-1.1-1.6-1.8c-0.6-0.9-0.8-2-0.8-3.2c-0.1-0.8-0.1-1.6-0.1-2.3c0.1-0.7,0.1-1.4,0.2-2
		c0-0.1,0-0.2,0-0.3c0.2,0.1,0.5,0.1,0.7,0.2c0.2,0,0.5,0.1,0.7,0.1c0.9,0.1,1.7,0,2.5-0.6c0.9-0.6,1.4-1.6,1.5-2.7
		c0-0.5-0.2-0.9-0.6-1.1c-0.8-0.5-2-0.6-2.7,0.5c-0.1,0.1-0.2,0.3-0.3,0.5c-0.1-0.1-0.2-0.1-0.3-0.2c-0.7-0.7-0.9-1.5-1.1-2.4
		c-0.1-0.9,0-1.8,0.2-2.7c0.2-0.8,0.7-1.5,1.1-2.2c0.7-1.1,1.6-2.2,2.6-2.9c0.2-0.1,0.3-0.1,0.5,0c0.9,0.7,1.6,1.5,2.2,2.4
		c1,1.6,1.6,3.4,2.1,5.2c0.1,0.6,0.2,1.2,0.3,1.8c0.1,0.9,0.3,1.8,0.6,2.7c0.1,0.7,0.2,1.2,0.3,1.9c0.1,0.9,0.3,1.8,0.6,2.6
		c0.1,0.9,0.3,1.7,0.6,2.5c0.8,2,2.1,3.7,3.9,4.9c0.9,0.6,1.8,1,2.8,1.2c1,0.1,2,0,3.1-0.2c0.3-0.2,0.7-0.5,0.8-0.8
		c-0.2-0.1-0.5-0.2-0.7-0.3C516,572.7,515.7,572.7,515.4,572.7z M500.4,546c-0.7,0.5-1.4,0.9-1.9,1.5c-1.4,1.2-2.6,2.5-3.5,4.1
		c0,0.1-0.1,0.1-0.1,0.2c0,0,0,0-0.1-0.1c0-0.6,0-1.2,0-1.9c0-0.1,0.1-0.2,0.1-0.3c0-1.9,0-3.7,0-5.7c0-1.1,0-2.2,0-3.3
		c0-1.5,0-2.9,0-4.4c0-1.6,0-3.3,0.1-5c0-0.6,0-1.1,0.2-1.7c0.2-0.3,0.6-0.7,0.9-1c0.8-0.7,1.6-1,2.6-1.2c0.8-0.1,1.7-0.2,2.6-0.1
		c1.7,0,3.2,0.7,4.4,1.9c0.8,0.8,1.4,1.8,1.8,2.8c0.2,0.7,0.6,1.5,0.7,2.3c0.3,1.5,0.1,3-0.6,4.4s-1.7,2.7-2.9,3.9
		C503.4,543.5,501.9,544.8,500.4,546z"/>
	<path d="M543.4,564.3c-0.1-0.2-0.3-0.3-0.6-0.3c-0.3,0.1-0.7,0.3-0.8,0.7c-0.2,0.5-0.5,0.9-0.7,1.4c-1.2,2.2-3.2,3.3-5.6,3.5
		c-1.4,0.1-2.8,0.1-4.3,0.2c-1,0-1.9-0.1-2.8-0.1c-0.6,0-1.1,0-1.6,0c-0.3,0-0.6,0-0.8-0.1c-0.5-0.1-0.8-0.3-1-0.8
		c-0.2-0.5-0.3-0.9-0.3-1.5c-0.1-2.2-0.1-4.4-0.1-6.6c0-2.7,0-5.4,0-8.1c0-0.1,0-0.2,0-0.3c0.1-0.3,0.3-0.5,0.6-0.3
		c0.1,0,0.2,0,0.2,0c1.4,0.5,2.6,0.9,4,1.1c0.8,0.2,1.6,0.2,2.4,0c1.1-0.2,2.1-0.8,2.6-1.8c0.7-0.9,0.9-1.9,1.1-3.1
		c0-0.3-0.1-0.6-0.3-0.8c-0.2,0.1-0.5,0.2-0.6,0.6c-0.1,0.1-0.2,0.3-0.3,0.6c-0.7,0.7-1.5,1-2.4,1c-0.9,0-1.8-0.2-2.6-0.5
		c-1.4-0.5-2.6-0.9-3.9-1.4c-0.2-0.1-0.5-0.1-0.8-0.2c0-1,0-1.9,0-3c0-3.3,0.1-6.6,0-9.9c0-1.3,0.2-2.5,0.6-3.7
		c0.1-0.8,0.6-1.4,1.2-1.7c0.8-0.5,1.7-0.7,2.7-0.7c1-0.1,2-0.1,3.1,0c1,0,2,0.1,3.1,0.1c0.6,0.1,1.1,0.2,1.7,0.3
		c0.1,0.1,0.1,0.1,0.2,0.2c-0.1,0.2-0.3,0.6-0.5,0.8c-0.6,0.9-1.1,1.9-1.5,3.1c-0.1,0.5-0.2,1.1-0.3,1.7c-0.1,1.1,0,2.3,0.5,3.4
		c0.5,1,1.3,1.8,2.2,2.5c0.5,0.3,0.9,0.6,1.5,0.7c0.9,0.2,1.7,0,2.4-0.6c0.8-0.5,1.4-1.1,1.6-2c0.2-0.8,0-1.7-0.3-2.5
		c-0.2-0.6-0.7-0.9-1.4-0.8c-1.1,0.1-2,0.9-1.9,2.2c0,0.1,0,0.2,0,0.3c-0.1,0-0.2,0-0.2,0c-0.2,0-0.5-0.1-0.7-0.1
		c-1-0.3-1.8-1.2-1.6-2.6c0.1-0.9,0.3-1.7,0.8-2.5c1-1.9,2.5-3.5,4.2-4.9c0.1-0.1,0.2-0.2,0.2-0.2c0-0.5,0-0.9,0-1.3
		c0-0.5-0.2-0.6-0.6-0.6c-0.2,0-0.6,0-0.8,0c-0.8,0-1.7,0.1-2.5,0.2c-3.4,0-6.9,0-10.3,0c-0.8,0-1.5,0-2.2,0
		c-0.6,0.1-1.1,0.2-1.6,0.3c-0.6,0.1-1,0.3-1.6,0.5c0,0-0.1-0.1-0.2-0.1c-1.1-0.9-2.5-1.2-4.1-1.1c-0.7,0.1-1.2,0.5-1.7,1.1
		c-0.2,0.3-0.5,0.7-0.3,1.1h0.1c0.8,0.2,1.5,0.6,2,1.1c0.3,0.2,0.7,0.6,0.8,1c0.1,0.5,0.2,0.9,0.3,1.4c0,0.8,0,1.7,0,2.5
		c0,4,0,7.9,0,11.9c0,0.1,0,0.2,0,0.3c0,0.1,0,0.1-0.1,0.2c-0.6-0.1-1.1-0.2-1.8-0.2c-0.7,0.1-1.2,0.2-1.8,0.7
		c-0.8,0.7-1.1,1.7-1.2,2.7c-0.1,0.6-0.1,1.1-0.1,1.7c0,0.3,0.1,0.7,0.3,0.9c0.2,0.5,0.5,0.5,0.8,0.1c0.2-0.2,0.3-0.6,0.5-0.8
		c0.1-0.6,0.8-1.1,1.5-1.1c0.5,0,0.9,0.1,1.4,0.2c0.2,0,0.5,0.1,0.7,0.2c0,0.1,0,0.3,0,0.6c0,4.2,0,8.4,0,12.6c0,1.2,0,2.6-0.1,4
		c0,0.3-0.2,0.7-0.6,1c-0.7,0.6-1.5,0.9-2.3,1.1c-0.1,0.1-0.1,0.2-0.1,0.2c0.2,1,0.9,1.8,1.9,2c0.9,0.2,1.6,0.1,2.4-0.1
		c0.6-0.2,1-0.2,1.6-0.2c1.6,0,3.2,0,4.7,0c3.5,0,6.9,0,10.3,0c1.5,0,3,0,4.4,0.2c0.2,0,0.3,0,0.6,0c0.3,0,0.6-0.2,0.6-0.6
		c0.1-0.3,0-0.8,0-1.1c0-0.1,0-0.3-0.1-0.5c-0.3-0.6-0.2-1,0.1-1.6c0.2-0.5,0.5-1.1,0.6-1.7c0.1-0.7,0.2-1.4,0-2
		C543.6,564.5,543.6,564.4,543.4,564.3z"/>
</g>
</svg>
